<svg 
      xmlns="http://www.w3.org/2000/svg"
      xmlns:xlink="http://www.w3.org/1999/xlink"
      viewBox="0 0 500 500" 
      version="1.2" 
      stroke-linecap="round" 
      stroke-linejoin="round" 
      width="500" 
      height="500"
    >
    <path
          d="M144.2150874429808,441.9326592571199L144.2861782169989,439.5322637840238L145.52343108142304,441.7836516206587ZM133.87606877845792,436.79867404299307L134.60123358380451,437.76535632904074L133.27863288019262,438.80682402585194L132.92317901010392,437.28198920156933ZM136.16562125178598,429.9438249239463L136.5923609596989,430.98350683573403L135.38342716180614,431.0390928024233ZM136.64919466854735,424.93459012631297L137.9717953721588,426.08443731743205L136.13730218525416,425.54653268921106ZM140.01975594492342,426.0289122974507L139.82074120001835,426.32564914727004L139.87757439688812,426.4924927979598L140.4890722965165,426.640746322166L139.87757439688812,426.7337261698301L140.5601630705337,426.99331408099147L139.4650917541444,426.77066367519114L138.59755033695546,425.3425429547567L139.29439607577024,425.63923524194L139.65004500966597,423.7481193558049ZM140.14768042778996,469.54300772127203L140.06233258860266,472.2403413179993L136.5781038945297,473.8143166255743L137.1042534429921,472.44645025411023L136.08027290062046,467.72708792268054L132.78099746206863,465.74334403730995L136.0662114112365,466.64143345796833ZM142.35208012573776,460.3020972814995L142.30950348205852,465.36925777446663L140.47481523134638,467.18422804087163L141.8970208393148,463.6297498313145L141.38493329221455,461.8346901756979L140.204709200445,467.0158832135928L138.01456707964508,466.02392958342193L137.03316266897446,464.5834164948012L138.82507972417852,460.47019275731896L141.34235664853531,461.0309829566593L142.46594260724123,459.12509204253524ZM144.64182766287195,447.29583606821393L146.06383820703286,445.4514739345884L146.191957753706,446.86723505955183L147.47178674983115,446.47602701087476L146.78919807618558,448.7495450757608ZM146.5901833312805,443.71959628668196L147.20168123090843,444.7624290701913L146.24879146255444,445.5632558928853ZM145.4665973725746,443.0494765052206L145.85056588497946,444.98596048868853L144.99728153296064,445.6006018709393ZM142.80713890018205,455.6887170762859L144.9547048892814,456.4914757087647L142.67921492929463,457.91068896753745ZM141.18591803533081,455.8007516394671L141.96811161333198,457.3692631477677L142.49426167377305,456.45429602709214L142.48000409662518,458.15359501532544L139.05260911140022,459.8350561789646L140.7166016837382,454.6995026015991ZM134.80044390449484,450.52072931523L135.667985833662,450.4459559874397L135.5115472204575,451.8074353126874L131.7001837228272,456.28609359323787L131.0173999853746,455.166014012744L132.3542577541557,453.46783561090274L131.5294875324753,453.9155128368559L131.37304891927033,452.77731585535525L130.8041276633221,453.9155128368559L130.67620318045556,453.113210566333L131.45839675845718,448.33949041452684L132.61030178369492,447.2584761462401L130.07876728219026,449.10357266656933L130.5765982760995,447.6871147645113L129.2397399953402,447.5008119672441L130.78987008617378,445.39571239326347L131.06017169286088,447.5008119672441L132.48237730082883,446.5320580234568L132.1267283669331,444.7624290701913L130.86096086019188,444.92994854508856L133.7907209392706,442.73298757853513L134.003993261324,444.6693366848824L135.42619886929197,444.5762462068617L133.3071475225097,448.52582763944133ZM143.31922695926096,442.0814158208984L144.2150874429808,444.24098276413383L143.44715093014838,445.63769267084604L142.4516850300938,441.8953427365375L143.60359005533155,438.84411522276673ZM155.80581161288274,380.22487564282915L152.5631743073941,377.3244550845732L146.3767154334423,374.5724333027922L146.39097301059064,373.4721315660711L145.43827830604323,374.0221240972794L144.68440379457297,368.68863220725893L153.78636517045607,370.5391819212316L153.21744391450784,371.7671656906525L154.127561975376,370.88748450465096L154.49727291063346,373.0136026970406L155.03787510005077,370.1176798573049L156.80127802491597,377.2692624854742ZM147.8985269697232,381.23496594370795L146.97415133170807,379.26996925840126L149.53400489974365,379.7107102054722L150.15975986454123,380.9961057528501L149.5197478345749,382.6310425445779ZM143.20536447775658,377.9666519336845L147.50030139214823,381.5288284968676L145.95017130131464,380.298260727385L146.4905779149458,381.1981395504006L142.522775804111,380.1696485266532L139.80648362287093,375.3243343265274ZM135.59689505964434,423.3217266974159L136.02343970375068,424.4897549920686L134.90004932083002,424.1931372938477ZM140.83046416524212,426.78925975500783L140.51758693883266,426.41836750576954L139.86331733171892,426.3997729353853L140.5601630705337,425.93594678992326L139.93440810573657,423.3031440506504L140.60273920223472,422.24688459061895L142.79288183501285,423.5997046927075L142.4374279649246,425.7319396749642L142.9352584468552,423.7295349764993L142.97783509053443,425.04586992408736L143.78854331085313,424.73062769709236L142.522775804111,427.8282241885029ZM143.07743999489094,389.9308432291325L145.43827830604323,392.32360596027115L141.96811161333198,389.213205503552ZM340.27443085029563,59.364510063632906L341.1704869098012,60.98158437258553L340.0326438859256,60.878331924037866ZM331.229498247068,66.59361880208235L330.7459248303062,68.86767315175803L329.0961893231374,65.68068090781662ZM328.3850865191539,63.717933856346235L329.76471599542083,64.38936023629617L329.5229295430295,65.3018347290024ZM328.8971745782319,63.11561504516317L329.1389610306237,63.90729554613563L328.29993374377364,63.63188404581865ZM337.06030818712406,59.19255557640031L337.9706213117988,56.9916609855743L339.53500897978074,58.43583434397897L339.1082687598887,59.77741283587875L338.31181811671786,58.88291000071331L337.11733695977955,60.27634129204057ZM336.76168751390605,54.01814860792206L337.7856680562777,56.51027983902259L336.91812663908877,57.59327265951765ZM108.53416436696943,499.3589954635429L107.84317771005908,496.1237910430152L100.4427072354938,485.6416252198817L88.07682048827155,478.60139017333836L83.29694317453504,479.1670173508794L82.26378336971447,477.9515862630535L79.56780291133282,478.766045956271L79.17192117131117,477.6596948460831L78.146378582549,477.9804417956118L78.01142309900206,383.7196383786779L77.90869307790808,271.2485866896252L78.16961933438188,170.46115746374994L77.82314966293643,69.3241653427956L163.63946709264337,68.94103128600773L204.66625970936593,23.100014337557468L204.76254443317748,20.333153451760836L207.07983026963802,17.793171889177756L209.4973067138535,17.27740123705007L213.18816736889084,19.58223711252367L216.20073587381785,19.377119147545272L223.84943809805736,23.610721458261196L227.93871939447627,22.642132493085L228.1301179472798,19.87527645093769L230.31733052712752,17.672250943730887L230.8188718291949,12.180504036029106L234.1548648295211,9.474309607331406L235.27942661924044,5.5245580621917725L238.78748279250294,2.2737367544323206e-13L241.27585443495036,1.7700129142826881L242.1250378392192,4.855679788981206L245.47216278797714,6.609062642429308L248.50953511508487,10.588871285864343L254.19054680302543,12.464238985576685L256.06566292367006,14.634424137698034L260.18189630403685,16.03352456868015L261.0318609874903,19.927790694251826L263.4917184996002,21.38738272178807L268.05461267114697,21.924191511521258L271.0837820787965,26.3701412152991L276.0950951756781,22.764105172082736L280.1626977666542,28.781793877794144L283.17272788220043,29.30408815781925L289.6857353443311,28.12195473171414L289.7175701671931,31.86957456328696L290.7145986256164,33.37007279161776L293.2742566178672,33.122114219136165L296.0866384591127,35.78139974398891L302.4537535530717,35.2370676201931L303.6742104509676,36.81166934844964L306.4799519311241,37.47000872108947L310.4620111071281,41.78618591219356L314.8710055668307,41.97004694423981L317.7601422001917,46.212407048759815L320.24870941842437,47.88316138102482L322.5232235473991,48.13110978789382L328.6212094654261,45.910596826275196L332.6089326595279,45.757696313525685L335.26839113192,47.13255173780135L336.107418418771,48.62562736870109L335.2969057742371,48.52261877108549L334.74224158345805,55.633567786786216L335.979493935904,57.90284170830637L334.6996649397788,57.85112746242157L334.5715453931057,59.34750321439924L333.3057783983427,59.58820117523055L334.11648661866093,60.37958181735371L333.40538330269874,61.549392329884995L328.4989490006574,62.11726216578245L329.03935561428943,62.85726304577838L327.517740165772,64.35507763360852L330.7601818954754,69.47065854824541L328.8260838042147,69.12608689378976L329.59402031704667,69.7463794844573L327.40387768426854,73.15990711032282L330.77443947262327,78.45700270694283L328.35168964990226,79.82486786915047L326.89686793988903,86.38398224848083L330.3408638278361,89.46685911014151L332.3200774641364,86.80307930897766L334.7992703561131,86.55589136416438L336.7902021562227,84.69298347550784L344.8111542170791,91.6630497899398L353.5146949515806,94.01735444716633L356.657726840735,97.1697650774181L360.0425456942585,96.90994453905046L359.7011538255324,98.15753617058454L357.7385410919551,97.49908021581177L359.6443206286626,98.34816366219479L359.10391350305235,99.73465128543558L360.44077127183346,96.75410592481444L367.139122629078,102.52637717807306L370.38156487076003,103.53233328427109L374.9751219463915,107.35023652205905L379.1989675747868,109.15603392289268L393.80460408717045,124.67075768132418L398.7821296752072,135.41264151585096L386.7080271523505,154.05551515987486L385.2717595430204,161.20935280856997L386.33831621709305,167.42445615465044L385.66978954480965,168.56671331829534L390.7469200372034,178.08216572464562L390.40572374426256,179.085881470942L399.33679386598624,188.21567283605646L404.2432281680276,191.46291665244144L410.00314290985125,192.34568038762086L416.5165410115751,190.77446570737766L417.6116123279644,192.3985393973312L416.6161464279098,189.25681810874607L418.74945483986085,191.03916866167174L420.5413718950649,196.47889317091153L422.176850337064,226.54060764234373L405.1250271623635,253.4975031696706L398.7252959663588,265.9747617457117L390.29186126275863,275.4842925557575L383.5792523283658,282.00823861558433L383.2948897442734,279.05972731974794L384.44679425753293,278.1611153639444L385.4139410910557,278.30474354877356L387.24843427796077,276.25659405656893L385.4565172227567,273.993813532112L387.547054439201,273.0424073909687L387.31952505197887,271.30132175332005L388.64212575558986,270.35044875387825L387.1488293736047,270.88857166248204L384.3614464183461,273.8680659809763L383.52241913149555,277.19087228763397L384.47530889984955,276.8674191534294L383.18102726276993,278.825987947421L382.9820120058862,280.13823459343917L382.9962690710554,281.5585119146115L383.5081615543486,282.15198272149087L383.93490177423973,282.00823861558433L378.8292566395294,290.288189655397L377.3359602575438,297.5900299107468L378.3884549302543,299.80995802890016L377.3359602575438,305.0837413268239L374.9182882375435,306.36723005313866L370.38156487076003,311.93783018312683L361.52158552305355,318.04078052062937L337.17417066862845,330.1975016688791L327.37536304195146,334.2143455308335L317.46288902153447,336.1419892016522L318.0175532123144,336.669618891088L311.60356495114047,339.3993992440303L296.79891318187356,344.5719112532363L259.0547956129585,353.5099312821965L228.73419369465591,359.13685208734273L225.19313180371228,358.9538482616315L208.18408033649803,362.8125113091662L193.53567211662858,364.1299341616311L180.9211629801407,363.4162735330631L169.52964964290823,364.4227172518165L164.0400359957921,361.8247512495643L158.6785429193069,363.2697854853393L145.56620278890887,358.4239547364457L145.4523403074054,359.24630666369626L145.12540107963378,357.6198166399279L143.73151402621897,357.27250398350657L142.29524641688886,352.15890343546357L139.94866517090531,352.26844509320085L138.98151833738302,351.11875934940167L138.6403220444422,352.48753675894636L136.10878754293753,350.44341625767197L133.3071475225097,349.91448684365537L133.43507149339757,347.7437689905312L133.27863288019262,349.0203776789883L132.69564962288132,347.6708952672318L133.20754210617497,349.4399789345182L131.74275985452823,348.19982220198494L133.1081322656255,346.8320470620249L131.1027478245619,345.4283765792554L129.86549496013686,345.9205024136047L129.75163247863338,347.8349259259883L128.20150238779934,346.94146420556694L128.1304116137817,348.10865816821047L127.1064310714105,347.1968646076241L127.8460485177111,348.23613796154063L126.6656293621345,347.1420273634824L127.1064310714105,348.2544210206431L125.2719378845054,347.81664450350695L125.25768081933666,348.92919767781655L126.73672013615214,348.473324945797L126.1394798136721,349.23931739717113L127.71812454682322,348.4184727634108L127.12068864855792,349.58603409165266L127.95971593540753,348.3455878903885L127.86030609485852,348.54621114930364L128.08783548208112,348.7651287080023L127.74644361335459,350.2063804033671L128.69933338170858,349.8413284579781L128.61398503054306,349.184707099407L128.1446686789509,349.56774583490756L128.24427409528516,348.6373836968103L127.93139686887662,348.4550403759288L128.514380126187,348.16325592463795L128.72784751204745,347.72548792364137L128.82725735259646,348.2178543172247L129.6664802152318,347.9443664840385L130.96056627652615,348.19982220198494L131.31602014661485,348.5644954183733L130.76155101964196,348.2727041510841L129.93658573415496,348.7834138314545L128.52863719135667,348.54621114930364L128.84151441776567,349.47655517839235L129.01221060811804,348.7468429992907L130.32055424655982,348.9474840983096L130.5765982760995,348.4184727634108L132.82357410574832,349.82303854754423L132.38277239647277,350.09688698767854L133.71963016525342,350.2792942365752L134.06082645819424,351.11875934940167L131.45839675845718,352.94380053714644L130.66194611528636,351.81224650134095L130.07876728219026,351.84859028563983L130.60511240643837,352.2501463548426L130.53382656861322,352.77959081830954L130.00767650817215,352.17720181703476L129.89400960245393,352.1955002701568L129.52410309141123,352.68833757442394L129.35360247684366,352.70663802649074L129.52410309141123,352.81619250788776L129.93658573415496,352.23184703092534L130.10728192450688,352.3230913726013L129.90826666762314,352.48753675894636L130.07876728219026,352.9254991574028L130.47699285976523,352.9254991574028L130.84670379502268,352.5604854774881L131.40136798580215,353.76543977399865L133.64853939123623,352.3230913726013L132.99426978412203,353.61950457734815L133.86181171328872,353.5462882559607L132.36851481932445,353.74713452210403L134.90004932083002,354.45931870572144L131.06017169286088,355.2446026257501L132.7382257545828,357.27250398350657L131.50097340213642,361.12977673735645L132.89466487976551,363.4346160681355L135.75333367284884,362.5014903790418L133.39249536169655,363.67232398633973L135.269760256087,363.56251455655024L135.44045644643938,365.31952751048834L135.767395674211,363.4710503914896L136.222650024441,364.38602381828764L136.13730218525416,363.4346160681355L137.86535453092847,364.1482795049112L136.67770879888576,364.5142000917883L136.720285442565,366.19815692373663L134.84302054817408,366.8207138330347L132.38277239647277,370.1909054163291L134.64400529129034,371.583916533559L133.1507089093052,372.3537125052619L133.5204198445631,375.48959312939064L132.6528779153955,376.2784290774291L137.07593437646028,380.81249198445107L133.5204198445631,380.5920639087342L132.83783117091753,381.7308855156914L143.74577160336685,383.5497965908878L148.51002435737246,387.61282017154485L148.83715916092933,389.30517821464923L148.2539803278337,391.7160715789703L147.03098504055606,391.55048600262967L140.47481523134638,386.4725514324507L139.73539284885283,384.02753992381827L135.31233638778804,384.50533320557884L136.63493709139993,386.3437676965184L138.09991491883238,386.6563897227536L137.1753442170093,385.59007771635356L140.98690277844662,387.962154283475L142.1956410005546,390.31725190164184L146.8602888502037,393.77816993582906L143.24813618524286,406.46662739750013L143.13427370373938,408.332358943944L144.55647982368555,409.31156873542L142.75030570331228,412.47265042221375L143.19110741258737,420.26432006003574L141.8259300652967,421.0794287512533L140.3326336833111,419.3196468824656L141.75483929127904,421.0980017018667L142.67921492929463,421.116575394816L143.07743999489094,420.4866545970042L143.20536447775658,422.02446519689715L142.75030570331228,423.0251840778308L139.33716778325697,420.65328470801455L140.7876924577563,421.82063183062724L137.04741973414366,422.8213067903714L135.79590980454986,421.69085570936636L135.99512063721886,421.06085587600523L135.6963049001938,421.116575394816L135.6109570610065,420.63496764992374L134.6297482261216,420.1345873895132L135.6109570610065,420.7089992656836L135.6394711913449,421.15346755594487L134.84302054817408,422.06161884512335L136.2083929592718,422.5619556541244L133.34972365421072,422.06161884512335L131.72850278935903,434.66126382502057L132.98001271895282,440.44382530816324L130.66194611528636,445.1908321564749L126.80781091017025,446.86723505955183L124.29053398581345,451.08003281484457L128.38645564332091,461.7787259829113L132.92317901010392,464.43391878458465L133.13645133215732,465.0512052093602L132.63881591403333,465.57505294143516L132.9374365872518,466.58541034786026L135.8812581557154,467.8579289274028L135.15589777458354,468.3633353175135L135.83868151203615,468.1576697246062L136.720285442565,470.70421183127496L136.40740770417733,473.83310725457227L134.03250739166242,473.6081450935669L132.14098543210275,470.14221818814144L130.76155101964196,471.00388429020427L131.60057830649248,470.91025052169175L131.7570174316752,473.1585128722238L134.61549064897326,474.54538847788103L134.17468893969817,473.90826853030853L137.20385885932683,474.41435319568814L139.2233053017526,473.2897686698964L137.21811592449603,476.42046147387623L133.20754210617497,489.1350232849434L127.88862516139034,492.5215512487414L113.32576035649345,498.6427633194419L112.8279293625842,500.0000000000002ZM146.3767154334423,366.1249941430726L145.77947511096227,364.18471940637687L144.31469285931507,364.18471940637687L144.9547048892814,365.337877537155L142.02494532218088,366.7658969254637L141.6837485172614,364.75221476284764L145.73689897926124,362.95873339729746L145.18223478848267,363.4346160681355L153.16061020565894,366.8207138330347L153.27427762335628,368.047716608736L150.57224250728495,368.7069961737859L147.69951171283947,367.1868443851488L147.69951171283947,366.0334796725699ZM137.16128221564713,364.4958533082188L137.73000840778923,364.95354368837457L137.9149616633108,364.8437040709157L138.0003095024972,365.0083386154936L137.41713118137977,365.7589470472019L137.13276808530918,365.1729796356942L137.0899963778229,365.8321040791668ZM138.22783940169847,364.3128901440534L139.2375623669218,364.4410637474932L138.38427801490297,365.5756832075315L138.1993247593814,364.75221476284764L137.51673608573583,364.7155187350793L137.9007045981416,364.6240319433998ZM141.4845381965706,361.020027152186L143.81686237738495,361.3126150532987L144.1439966689627,362.51982931608813L141.7120675837932,363.65423214787575L142.42317089975586,363.032098088406L140.84452616660428,361.73332115977223ZM131.0173999853746,345.7930855773095L132.08415172325385,347.36087933324075L131.42988262811832,348.1449732212393ZM137.0899963778229,359.8315298611976L136.5070131205116,361.3857023474127L135.96660599490178,360.5810539645629ZM139.20904772460472,361.1845274070654L140.14768042778996,358.62501073177805L141.15740339301374,359.0635492741769ZM138.2704155333986,357.8755498967564L139.96292274805364,358.64308373790595L138.22783940169847,359.995988227525ZM133.43507149339757,357.4188039093817L134.316870487733,358.02186871121944L133.05110349297001,358.40563188736473ZM139.5930162370105,353.78374444020415L139.94866517090531,354.49593419942653L139.03854711003805,354.47762674544924ZM136.77711863943523,357.1264599190938L137.4028736042319,357.7111661955407L136.222650024441,358.2229073966985ZM133.64853939123623,356.8521996411703L132.6528779153955,356.1579648135678L133.0796181352871,355.20823244554845L135.3976847389531,355.445521852718Z"
          data-id="ARG.1"
          data-name="Buenos Aires"
          fill="transparent"
          stroke="black"
          fill-opacity="1"
        />
		
    <text
            x="228.47789001464844"
            y="196.37820434570312"
            dominant-baseline="middle"
            text-anchor="middle"
            font-size="8px"
            font-family="sans-serif"
            fill="black"
            stroke="black"
            stroke-width="0.2px"
            stroke-linejoin="round"
          >
            <tspan x="228.47789001464844" ></tspan>
         </text>
  </svg>