<?xml version="1.0" encoding="UTF-8" standalone="no"?>
<svg
   width="324.74957"
   zoomAndPan="magnify"
   viewBox="0 0 243.56218 254.23436"
   height="338.97916"
   preserveAspectRatio="xMidYMid meet"
   version="1.0"
   id="svg9468"
   sodipodi:docname="banner-logo.svg"
   inkscape:version="1.1.1 (3bf5ae0d25, 2021-09-20)"
   xmlns:inkscape="http://www.inkscape.org/namespaces/inkscape"
   xmlns:sodipodi="http://sodipodi.sourceforge.net/DTD/sodipodi-0.dtd"
   xmlns="http://www.w3.org/2000/svg"
   xmlns:svg="http://www.w3.org/2000/svg">
  <sodipodi:namedview
     id="namedview9470"
     pagecolor="#ffffff"
     bordercolor="#666666"
     borderopacity="1.0"
     inkscape:pageshadow="2"
     inkscape:pageopacity="0.0"
     inkscape:pagecheckerboard="0"
     showgrid="false"
     inkscape:zoom="0.478"
     inkscape:cx="553.34728"
     inkscape:cy="302.30126"
     inkscape:window-width="1024"
     inkscape:window-height="705"
     inkscape:window-x="-8"
     inkscape:window-y="-8"
     inkscape:window-maximized="1"
     inkscape:current-layer="svg9468" />
  <defs
     id="defs9104">
    <g
       id="g9081" />
    <clipPath
       id="57c6cb3fa5">
      <path
         d="m 113.37891,63.308594 h 148.5 V 243.30859 h -148.5 z m 0,0"
         clip-rule="nonzero"
         id="path9083" />
    </clipPath>
    <clipPath
       id="2880d0fac4">
      <path
         d="m 111,218.89062 h 51.59766 v 3.75 H 111 Z m 0,0"
         clip-rule="nonzero"
         id="path9086" />
    </clipPath>
    <clipPath
       id="eabaa70e7a">
      <path
         d="M 113.37891,223.78125 H 165 v 3.75 h -51.62109 z m 0,0"
         clip-rule="nonzero"
         id="path9089" />
    </clipPath>
    <clipPath
       id="20ad972134">
      <path
         d="m 116,228.67578 h 51.65625 v 3.75 H 116 Z m 0,0"
         clip-rule="nonzero"
         id="path9092" />
    </clipPath>
    <clipPath
       id="58acae361a">
      <path
         d="m 119,233.5625 h 56 v 3.75 h -56 z m 0,0"
         clip-rule="nonzero"
         id="path9095" />
    </clipPath>
    <clipPath
       id="10330cd607">
      <path
         d="m 176,145.80859 h 68 v 61.5 h -68 z m 0,0"
         clip-rule="nonzero"
         id="path9098" />
    </clipPath>
    <clipPath
       id="b22fb54f5a">
      <path
         d="m 126,317.17187 h 122 v 0.75 H 126 Z m 0,0"
         clip-rule="nonzero"
         id="path9101" />
    </clipPath>
  </defs>
  <g
     clip-path="url(#57c6cb3fa5)"
     id="g9108"
     transform="translate(-65.728684,-63.3125)">
    <path
       fill="#ffffff"
       d="m 123.85547,120.77344 50.11328,67.38281 -51.32812,-54.07422 v 62.05859 l 32.51953,18.62891 18.32421,10.64453 13.34766,17.90625 c -0.48828,-0.12109 -1.09375,-0.24219 -1.57812,-0.60547 l -34.70313,-19.96093 -34.82422,-19.96094 c -1.45703,-0.84375 -2.30859,-2.41797 -2.30859,-3.99219 v -80.08203 c 0,-1.81641 1.09375,-3.50781 2.67187,-4.23437 l 1.21094,-0.60547 z m 113.9375,-18.50781 V 72.507812 h -6.91406 v 20.078126 l -9.34375,-5.199219 V 63.3125 h 25.48046 v 44.27734 l 12.5,7.13672 c 1.45313,0.84375 2.30469,2.41797 2.30469,3.99219 v 80.08203 c 0,1.81641 -1.09375,3.39063 -2.79297,4.11328 l -34.33984,19.83985 -27.54297,15.84765 -0.60547,-0.60547 -0.36719,1.21094 -5.09375,-6.89844 -0.48437,-0.48047 0.12109,-0.12109 -50.23828,-67.38281 58.97266,62.30078 20.6289,-11.85547 32.39844,-18.62891 v -74.76171 l -14.68359,-8.46875 z m -47.8086,-27.582036 34.70313,20.082031 6.19141,3.507813 v 10.644532 l -10.80079,-6.28906 -32.51953,-18.632816 -32.39843,18.632816 -22.69141,13.0664 -5.58203,-7.3789 23.66406,-13.550785 34.70313,-20.082031 c 1.57812,-0.847656 3.27343,-0.726563 4.73046,0"
       fill-opacity="1"
       fill-rule="nonzero"
       id="path9106" />
  </g>
  <path
     fill="#ffffff"
     d="m 139.54476,41.97656 v 11.73438 c 0,0.96875 -0.84766,1.8164 -1.82032,1.8164 h -11.76953 c -0.96875,0 -1.82031,-0.84765 -1.82031,-1.8164 V 41.97656 c 0,-0.96484 0.85156,-1.8125 1.82031,-1.8125 h 11.76953 c 0.97266,0 1.82032,0.84766 1.82032,1.8125"
     fill-opacity="1"
     fill-rule="evenodd"
     id="path9110" />
  <path
     fill="#ffffff"
     d="M 139.54476,63.39063 V 75.125 c 0,0.96875 -0.84766,1.8125 -1.82032,1.8125 h -11.76953 c -0.96875,0 -1.82031,-0.84375 -1.82031,-1.8125 V 63.39063 c 0,-1.08985 0.85156,-1.81641 1.82031,-1.81641 h 11.76953 c 0.97266,0 1.82032,0.72656 1.82032,1.81641"
     fill-opacity="1"
     fill-rule="evenodd"
     id="path9112" />
  <path
     fill="#ffffff"
     d="m 119.64632,41.97656 v 11.73438 c 0,0.96875 -0.85156,1.8164 -1.82031,1.8164 h -11.76953 c -1.09375,0 -1.82032,-0.84765 -1.82032,-1.8164 V 41.97656 c 0,-0.96484 0.72657,-1.8125 1.82032,-1.8125 h 11.76953 c 0.96875,0 1.82031,0.84766 1.82031,1.8125"
     fill-opacity="1"
     fill-rule="evenodd"
     id="path9114" />
  <path
     fill="#ffffff"
     d="M 119.64632,63.39063 V 75.125 c 0,0.96875 -0.85156,1.8125 -1.82031,1.8125 h -11.76953 c -1.09375,0 -1.82032,-0.84375 -1.82032,-1.8125 V 63.39063 c 0,-1.08985 0.72657,-1.81641 1.82032,-1.81641 h 11.76953 c 0.96875,0 1.82031,0.72656 1.82031,1.81641"
     fill-opacity="1"
     fill-rule="evenodd"
     id="path9116" />
  <g
     clip-path="url(#2880d0fac4)"
     id="g9120"
     transform="translate(-65.728684,-63.3125)">
    <path
       fill="#ffffff"
       d="m 160.37109,218.89062 h -47.29296 c -0.9336,0 -1.6875,0.83985 -1.6875,1.875 0,1.03516 0.7539,1.875 1.6875,1.875 h 47.29296 c 0.9336,0 1.6875,-0.83984 1.6875,-1.875 0,-1.03515 -0.7539,-1.875 -1.6875,-1.875 z m 0,0"
       fill-opacity="1"
       fill-rule="nonzero"
       id="path9118" />
  </g>
  <g
     clip-path="url(#eabaa70e7a)"
     id="g9124"
     transform="translate(-65.728684,-63.3125)">
    <path
       fill="#ffffff"
       d="m 162.89844,223.78125 h -47.29297 c -0.92969,0 -1.6875,0.83984 -1.6875,1.875 0,1.03906 0.75781,1.875 1.6875,1.875 h 47.29297 c 0.93359,0 1.6914,-0.83594 1.6914,-1.875 0,-1.03516 -0.75781,-1.875 -1.6914,-1.875 z m 0,0"
       fill-opacity="1"
       fill-rule="nonzero"
       id="path9122" />
  </g>
  <g
     clip-path="url(#20ad972134)"
     id="g9128"
     transform="translate(-65.728684,-63.3125)">
    <path
       fill="#ffffff"
       d="m 165.42969,228.67578 h -47.29297 c -0.93359,0 -1.69141,0.83984 -1.69141,1.875 0,1.03516 0.75782,1.875 1.69141,1.875 h 47.29297 c 0.93359,0 1.6875,-0.83984 1.6875,-1.875 0,-1.03516 -0.75391,-1.875 -1.6875,-1.875 z m 0,0"
       fill-opacity="1"
       fill-rule="nonzero"
       id="path9126" />
  </g>
  <g
     clip-path="url(#58acae361a)"
     id="g9132"
     transform="translate(-65.728684,-63.3125)">
    <path
       fill="#ffffff"
       d="m 173.0625,233.5625 h -52.08203 c -1.02734,0 -1.85938,0.83984 -1.85938,1.875 0,1.03516 0.83204,1.875 1.85938,1.875 h 52.08203 c 1.02734,0 1.85937,-0.83984 1.85937,-1.875 0,-1.03516 -0.83203,-1.875 -1.85937,-1.875 z m 0,0"
       fill-opacity="1"
       fill-rule="nonzero"
       id="path9130" />
  </g>
  <g
     clip-path="url(#10330cd607)"
     id="g9136"
     transform="translate(-65.728684,-63.3125)">
    <path
       fill="#ffd706"
       d="m 236.62891,167.81641 v 1.80078 c 2.5625,3.63281 3.65234,7.58203 2.77343,11.37109 -0.49218,2.12891 -1.57031,4.03125 -3.10156,5.67188 -0.70312,0.7539 -1.48828,1.45703 -2.375,2.09765 -1.44531,1.05078 -3.12891,1.9375 -4.99219,2.65625 -0.79687,0.3086 -1.6289,0.58594 -2.49218,0.82813 -5.73829,1.62109 -12.8125,1.78906 -20.12891,0.11718 -5.95703,-1.35546 -11.23047,-3.73437 -15.38672,-6.69531 -0.70703,-0.5039 -1.38672,-1.02344 -2.02734,-1.55469 -1.49219,-1.24609 -2.78907,-2.57421 -3.87891,-3.95703 -0.73828,-0.93359 -1.375,-1.89062 -1.91016,-2.86718 -1.6914,-3.08985 -2.3125,-6.33985 -1.58593,-9.47657 0.30468,-1.33593 0.85156,-2.58203 1.58593,-3.73437 v -3.55469 c -3.24609,2.33203 -5.49218,5.34766 -6.3125,8.91016 -1.51562,6.55468 2.09375,13.51953 8.9336,19.03125 0.26172,1.05859 0.59375,2.09765 0.98828,3.11328 1.66406,4.2539 4.5,8.03515 8.24219,10.82812 4.39062,3.26953 9.64843,4.90625 14.90625,4.90625 5.26172,0 10.51953,-1.63672 14.91015,-4.90625 1.24219,-0.92578 2.36719,-1.97265 3.39844,-3.09765 0.76563,-0.83594 1.48438,-1.71485 2.125,-2.64453 6.62891,-2.37891 11.35938,-6.60547 12.64063,-12.16016 1.30859,-5.65625 -1.20704,-11.61328 -6.3125,-16.68359 z m -14.14454,31.54687 c -0.59765,0.44531 -1.22265,0.84375 -1.85546,1.21484 -7.23047,4.26954 -16.54688,3.8711 -23.375,-1.21484 -1.54688,-1.15234 -2.90625,-2.50781 -4.0586,-4.01172 -0.77344,-1.00781 -1.45703,-2.08203 -2.03906,-3.20312 4.0625,2.3125 8.79297,4.16797 13.97266,5.34765 6.59765,1.50391 13.01562,1.69922 18.65625,0.8086 -0.42188,0.36718 -0.85157,0.72265 -1.30079,1.05859 z m -35.95703,-20.38281 c -0.51172,-0.64453 -1.02734,-1.37891 -1.5039,-2.19141 v -18.80469 h 1.91015 c 0.2461,0 0.48828,-0.0117 0.73828,-0.0156 0.41797,-0.0117 0.83594,-0.0508 1.25,-0.082 0.86329,-0.0664 1.72266,-0.15625 2.57032,-0.30469 1.91406,-0.33984 3.76953,-0.88672 5.54687,-1.63672 0.46094,-0.19531 0.91406,-0.40625 1.36719,-0.6289 1.08594,-0.53907 2.13672,-1.15625 3.14453,-1.84766 1.27734,-0.875 2.48828,-1.86719 3.60938,-2.98047 l 4.71093,-4.67969 4.71094,4.67578 c 4.86719,4.83594 11.33984,7.5 18.22266,7.5 h 1.91015 v 24.67579 c 0,1.05078 -0.0703,2.09765 -0.20703,3.13281 -0.51172,0.5 -1.07812,0.98047 -1.70312,1.42969 -0.86328,0.625 -1.84375,1.1875 -2.90235,1.69531 0.64063,-2.00781 0.99219,-4.11719 0.99219,-6.25781 V 161.7188 c -1.04297,-0.0664 -2.07031,-0.1875 -3.08594,-0.35938 -0.26562,-0.043 -0.53515,-0.0898 -0.80468,-0.14453 -3.76954,-0.73828 -7.33204,-2.20312 -10.53125,-4.3164 -0.12891,-0.0312 -0.25391,-0.0703 -0.38282,-0.10157 0.12891,0.0312 0.25,0.0664 0.375,0.10157 -1.63281,-1.07813 -3.17578,-2.32032 -4.59375,-3.73047 l -2.0039,-1.99219 -2.00782,1.99219 c -0.0937,0.0937 -0.1875,0.17578 -0.27734,0.26172 -0.63281,0.60937 -1.28125,1.19531 -1.95703,1.74218 -0.043,0.0352 -0.0898,0.0664 -0.13281,0.10547 -0.77344,0.61719 -1.57422,1.19141 -2.39453,1.72657 -4.23829,2.76171 -9.11719,4.39062 -14.25,4.71484 V 181.5 c -0.85547,-0.8125 -1.63672,-1.65234 -2.32032,-2.51953 z m 20.47657,9.375 v -8.54297 h -8.60157 v -5.69141 h 8.60157 v -8.54687 h 5.73437 v 8.54297 h 8.59766 v 5.6914 h -8.59766 v 8.54297 h -5.73437 z m 0,0"
       fill-opacity="1"
       fill-rule="nonzero"
       id="path9134" />
  </g>
  <path
     stroke-linecap="butt"
     fill="none"
     stroke-linejoin="miter"
     d="m 1.4041312,189.51172 v 2.57812 l 3.8710935,1.03516 v 10.84766 L 1.4041312,205 v 2.58594 H 13.54085 V 205 l -3.8710933,-1.02734 v -4.21094 h 9.9335943 v 4.21094 L 15.732257,205 v 2.58594 H 27.868976 V 205 l -3.871093,-1.02734 V 193.125 l 3.871093,-1.03516 v -2.57812 H 15.732257 v 2.57812 l 3.871094,1.03516 v 4.05078 H 9.6697567 V 193.125 l 3.8710933,-1.03516 v -2.57812 z M 52.267417,193.125 v 7.76953 c 0,2.8711 -1.42578,4.10547 -4.652346,4.10547 h -0.125 c -3.277344,0 -4.648438,-1.23437 -4.648438,-4.10547 V 193.125 l 3.35547,-1.03516 v -2.57812 H 34.579914 v 2.57812 l 3.867188,1.03516 v 7.76953 c 0,4.67969 2.253906,6.69141 7.492188,6.69141 h 3.226562 c 4.16016,0 5.937502,-2.01172 5.937502,-6.69141 V 193.125 l 3.878903,-1.03516 v -2.57812 H 48.392415 v 2.57812 z m 18.585937,3.33203 c 0,-3.05078 1.160153,-4.36719 3.871095,-4.36719 h 7.621095 l 1.035158,4.13672 h 2.578125 v -6.71484 H 73.177574 c -4.882815,0 -6.97266,2.09375 -6.97266,6.94531 v 4.4375 c 0,4.67969 2.089845,6.69141 6.97266,6.69141 h 5.941403 c 6.144532,0 8.77344,-2.01172 8.77344,-6.69141 v -2.57812 H 75.755699 v 2.57812 h 7.492185 c 0,2.8711 -1.242187,4.10547 -4.128907,4.10547 h -4.394528 c -2.710942,0 -3.871095,-1.23437 -3.871095,-4.10547 z m 40.019536,11.12891 c 5.24218,0 7.48438,-2.01172 7.48438,-6.69141 v -4.4375 c 0,-4.85156 -2.2422,-6.94531 -7.48438,-6.94531 h -6.71094 c -5.246093,0 -7.492186,2.09375 -7.492186,6.94531 v 4.4375 c 0,4.67969 2.246093,6.69141 7.492186,6.69141 z M 105.70492,205 c -3.07032,0 -4.38672,-1.23437 -4.38672,-4.10547 v -4.4375 c 0,-3.05078 1.3164,-4.36719 4.38672,-4.36719 h 3.61719 c 3.07031,0 4.39062,1.31641 4.39062,4.36719 v 4.4375 c 0,2.8711 -1.32031,4.10547 -4.39062,4.10547 z m 58.60938,-8.54297 c 0,-4.85156 -2.2461,-6.94531 -7.48438,-6.94531 h -14.71875 v 2.57812 l 3.87109,1.03516 v 10.84766 L 142.11117,205 v 2.58594 h 14.71875 c 5.23828,0 7.48438,-2.01172 7.48438,-6.69141 z m -4.51563,4.4375 c 0,2.8711 -1.37109,4.10547 -4.51953,4.10547 h -4.90234 v -12.91016 h 4.90234 c 3.14844,0 4.51953,1.31641 4.51953,4.36719 z m 12.77735,-11.38281 v 2.57812 l 3.87109,1.03516 v 10.84766 L 172.57602,205 v 2.58594 h 12.13281 V 205 l -3.86719,-1.02734 V 193.125 l 3.86719,-1.03516 v -2.57812 z m 6.68749,-1.29297 3.89454,-3.30469 h -4 l -2.32031,3.30469 z m 35.78517,19.36719 h 1.55078 V 205 l -3.875,-1.02734 v -7.51563 c 0,-4.85156 -2.09376,-6.94531 -6.97266,-6.94531 h -11.74609 v 6.71484 h 2.57812 l 1.03515,-4.13672 h 6.58204 c 2.71484,0 3.875,1.31641 3.875,4.36719 v 0.71875 h -9.42579 c -3.97656,0 -5.67968,1.47656 -5.67968,4.87891 v 0.39062 c 0,3.58985 1.70312,5.14063 5.67968,5.14063 h 7.10157 c 2.19141,0 3.5625,-0.82813 4.28516,-2.63672 0.85156,1.83594 2.45312,2.63672 5.01172,2.63672 z M 204.20102,205 h -4 c -1.88281,0 -2.71094,-0.76953 -2.71094,-2.55469 v -0.39062 c 0,-1.625 0.82813,-2.29297 2.71094,-2.29297 h 7.875 v 1.26562 c 0,2.78907 -1.16016,3.97266 -3.875,3.97266 z M 236.39633,192.08984 223.04868,205 v 2.58594 h 19.10937 v -6.71484 h -2.58593 L 238.53696,205 h -9.73438 l 13.35547,-12.91016 v -2.57812 h -19.10937 v 6.71484 h 2.57812 l 1.03516,-4.13672 z m 0,0"
     stroke="#545454"
     stroke-width="2.80826"
     stroke-opacity="1"
     stroke-miterlimit="4"
     id="path9138" />
  <g
     fill="#ffffff"
     fill-opacity="1"
     id="g9146"
     transform="translate(-65.728684,-63.3125)">
    <g
       transform="translate(65.840123,270.89767)"
       id="g9144">
      <g
         id="g9142">
        <path
           d="m 1.292969,-18.074219 v 2.582031 l 3.871093,1.03125 v 10.847657 l -3.871093,1.03125 V 0 h 12.132812 v -2.582031 l -3.871093,-1.03125 v -4.210938 h 9.941406 v 4.210938 l -3.875,1.03125 V 0 h 12.136718 v -2.582031 l -3.871093,-1.03125 v -10.847657 l 3.871093,-1.03125 v -2.582031 H 15.621094 v 2.582031 l 3.875,1.03125 v 4.054688 H 9.554688 v -4.054688 l 3.871093,-1.03125 v -2.582031 z m 0,0"
           id="path9140" />
      </g>
    </g>
  </g>
  <g
     fill="#ffffff"
     fill-opacity="1"
     id="g9154"
     transform="translate(-65.728684,-63.3125)">
    <g
       transform="translate(100.04823,270.89767)"
       id="g9152">
      <g
         id="g9150">
        <path
           d="M 17.945312,-14.460938 V -6.6875 c 0,2.867188 -1.417968,4.105469 -4.648437,4.105469 h -0.128906 c -3.277344,0 -4.648438,-1.238281 -4.648438,-4.105469 v -7.773438 l 3.359375,-1.03125 v -2.582031 H 0.257812 v 2.582031 l 3.875,1.03125 V -6.6875 C 4.132812,-2.015625 6.378906,0 11.621094,0 h 3.226562 c 4.15625,0 5.941406,-2.015625 5.941406,-6.6875 v -7.773438 l 3.871094,-1.03125 v -2.582031 H 14.074219 v 2.582031 z m 0,0"
           id="path9148" />
      </g>
    </g>
  </g>
  <g
     fill="#ffffff"
     fill-opacity="1"
     id="g9162"
     transform="translate(-65.728684,-63.3125)">
    <g
       transform="translate(130.12571,270.89767)"
       id="g9160">
      <g
         id="g9158">
        <path
           d="m 6.457031,-11.128906 c 0,-3.046875 1.160157,-4.363282 3.871094,-4.363282 h 7.617187 l 1.035157,4.128907 H 21.5625 v -6.710938 H 8.78125 c -4.882812,0 -6.972656,2.089844 -6.972656,6.945313 V -6.6875 C 1.808594,-2.015625 3.898438,0 8.78125,0 h 5.9375 C 20.863281,0 23.5,-2.015625 23.5,-6.6875 V -9.269531 H 11.363281 V -6.6875 h 7.488281 c 0,2.867188 -1.242187,4.105469 -4.132812,4.105469 h -4.390625 c -2.710937,0 -3.871094,-1.238281 -3.871094,-4.105469 z m 0,0"
           id="path9156" />
      </g>
    </g>
  </g>
  <g
     fill="#ffffff"
     fill-opacity="1"
     id="g9170"
     transform="translate(-65.728684,-63.3125)">
    <g
       transform="translate(160.59045,270.89767)"
       id="g9168">
      <g
         id="g9166">
        <path
           d="M 16.011719,0 C 21.25,0 23.5,-2.015625 23.5,-6.6875 v -4.441406 c 0,-4.855469 -2.25,-6.945313 -7.488281,-6.945313 H 9.296875 c -5.242187,0 -7.488281,2.089844 -7.488281,6.945313 V -6.6875 C 1.808594,-2.015625 4.054688,0 9.296875,0 Z M 10.84375,-2.582031 c -3.070312,0 -4.386719,-1.238281 -4.386719,-4.105469 v -4.441406 c 0,-3.046875 1.316407,-4.363282 4.386719,-4.363282 h 3.617188 c 3.074218,0 4.390624,1.316407 4.390624,4.363282 V -6.6875 c 0,2.867188 -1.316406,4.105469 -4.390624,4.105469 z m 0,0"
           id="path9164" />
      </g>
    </g>
  </g>
  <g
     fill="#ffffff"
     fill-opacity="1"
     id="g9176"
     transform="translate(-65.728684,-63.3125)">
    <g
       transform="translate(191.05519,270.89767)"
       id="g9174">
      <g
         id="g9172" />
    </g>
  </g>
  <g
     fill="#ffffff"
     fill-opacity="1"
     id="g9184"
     transform="translate(-65.728684,-63.3125)">
    <g
       transform="translate(206.54638,270.89767)"
       id="g9182">
      <g
         id="g9180">
        <path
           d="m 23.5,-11.128906 c 0,-4.855469 -2.25,-6.945313 -7.488281,-6.945313 H 1.292969 v 2.582031 l 3.871093,1.03125 v 10.847657 l -3.871093,1.03125 V 0 h 14.71875 C 21.25,0 23.5,-2.015625 23.5,-6.6875 Z M 18.980469,-6.6875 c 0,2.867188 -1.371094,4.105469 -4.519531,4.105469 h -4.90625 v -12.910157 h 4.90625 c 3.148437,0 4.519531,1.316407 4.519531,4.363282 z m 0,0"
           id="path9178" />
      </g>
    </g>
  </g>
  <g
     fill="#ffffff"
     fill-opacity="1"
     id="g9192"
     transform="translate(-65.728684,-63.3125)">
    <g
       transform="translate(237.01111,270.89767)"
       id="g9190">
      <g
         id="g9188">
        <path
           d="m 1.292969,-18.074219 v 2.582031 l 3.871093,1.03125 v 10.847657 l -3.871093,1.03125 V 0 h 12.132812 v -2.582031 l -3.871093,-1.03125 v -10.847657 l 3.871093,-1.03125 v -2.582031 z m 6.6875,-1.292969 3.898437,-3.304687 H 7.875 l -2.324219,3.304687 z m 0,0"
           id="path9186" />
      </g>
    </g>
  </g>
  <g
     fill="#ffffff"
     fill-opacity="1"
     id="g9200"
     transform="translate(-65.728684,-63.3125)">
    <g
       transform="translate(256.8911,270.89767)"
       id="g9198">
      <g
         id="g9196">
        <path
           d="m 23.886719,0 h 1.546875 V -2.582031 L 21.5625,-3.613281 v -7.515625 c 0,-4.855469 -2.09375,-6.945313 -6.972656,-6.945313 h -11.75 v 6.710938 h 2.582031 l 1.035156,-4.128907 h 6.582031 c 2.710938,0 3.875,1.316407 3.875,4.363282 v 0.722656 H 7.488281 c -3.976562,0 -5.679687,1.472656 -5.679687,4.878906 v 0.386719 C 1.808594,-1.550781 3.511719,0 7.488281,0 h 7.101563 C 16.785156,0 18.152344,-0.828125 18.875,-2.632812 19.726562,-0.800781 21.328125,0 23.886719,0 Z M 13.039062,-2.582031 h -4 c -1.886718,0 -2.710937,-0.773438 -2.710937,-2.558594 v -0.386719 c 0,-1.625 0.824219,-2.296875 2.710937,-2.296875 h 7.875 v 1.265625 c 0,2.789063 -1.164062,3.976563 -3.875,3.976563 z m 0,0"
           id="path9194" />
      </g>
    </g>
  </g>
  <g
     fill="#ffffff"
     fill-opacity="1"
     id="g9208"
     transform="translate(-65.728684,-63.3125)">
    <g
       transform="translate(287.48491,270.89767)"
       id="g9206">
      <g
         id="g9204">
        <path
           d="M 14.640625,-15.492188 1.292969,-2.582031 V 0 h 19.105469 v -6.714844 h -2.582032 l -1.03125,4.132813 H 7.050781 l 13.347657,-12.910157 v -2.582031 H 1.292969 v 6.710938 H 3.875 l 1.03125,-4.128907 z m 0,0"
           id="path9202" />
      </g>
    </g>
  </g>
  <path
     stroke-linecap="butt"
     fill="none"
     stroke-linejoin="miter"
     d="m 11.423663,235.51563 c 1.960937,0 3.386718,-0.26563 3.386718,-1.72657 0,-1.3789 -1.339843,-1.48828 -3.503906,-1.61328 -1.7031254,-0.10156 -2.0742192,-0.21484 -2.0742192,-0.6914 0,-0.45704 0.3710938,-0.6211 1.8671882,-0.6211 1.593749,0 2.238281,0.17969 2.238281,0.8711 h 1.238281 c 0,-1.34766 -1.261718,-1.86719 -3.316406,-1.86719 -2.0273442,0 -3.2656257,0.34765 -3.2656257,1.55469 0,1.22265 0.9492189,1.58984 3.3125007,1.71093 1.914063,0.10157 2.265625,0.17969 2.265625,0.70313 0,0.48828 -0.527344,0.68359 -2.070312,0.68359 -1.9218755,0 -2.4648449,-0.29687 -2.4648449,-0.96484 H 7.7986623 c 0,1.57812 1.3749999,1.96094 3.6250007,1.96094 z m 10.355469,-0.0781 h 5.804688 v -0.99609 h -4.566407 v -1.27735 h 4.566407 v -0.9414 h -4.566407 v -1.28125 h 4.566407 v -0.9961 h -5.804688 z m 15.960939,0.0781 c 1.183594,0 2.03125,-0.38282 2.566406,-0.96485 l 0.03906,0.88672 h 1.003905 v -2.93359 h -3.46875 v 0.87109 h 2.214844 c -0.01953,0.42188 -0.589844,1.16016 -2.121094,1.16016 -1.992188,0 -2.265625,-1.16016 -2.265625,-1.82813 0,-0.65625 0.265625,-1.79297 2.265625,-1.79297 1.664063,0 2.042969,0.71094 2.121094,1.16797 h 1.253906 c -0.08594,-1.32812 -1.175781,-2.21484 -3.375,-2.21484 -2.257813,0 -3.503907,1.02734 -3.503907,2.82422 0,1.79687 1.246094,2.82422 3.269532,2.82422 z m 14.027343,0 c 2.406253,0 3.449224,-0.92578 3.449224,-2.83203 v -2.73829 h -1.238285 v 2.73829 c 0,0.80859 -0.214846,1.78906 -2.210939,1.78906 -2.003905,0 -2.214842,-0.97266 -2.214842,-1.78906 v -2.73829 h -1.238281 v 2.73829 c 0,1.91406 1.035156,2.83203 3.453123,2.83203 z m 10.496097,-0.0781 h 1.238278 v -1.51562 h 2.562503 l 0.925785,1.51562 h 1.460936 l -1.027348,-1.66406 c 0.773438,-0.26563 1.253908,-0.91797 1.253908,-1.84375 0,-1.22266 -0.855469,-1.98438 -2.101558,-1.98438 h -4.312504 z m 1.238278,-2.55469 v -1.89062 h 2.683598 c 0.484372,0 1.253907,0 1.253907,0.9375 0,0.95312 -0.769535,0.95312 -1.253907,0.95312 z m 12.140626,2.55469 h 1.242193 v -5.49219 h -1.242193 z m 8.285157,0 h 3.968752 c 1.433598,0 2.683597,-0.8789 2.683597,-2.74609 0,-1.86719 -1.249999,-2.7461 -2.683597,-2.7461 h -3.968752 z m 1.238285,-1.04297 v -3.40234 h 2.210939 c 1.242187,0 1.960938,0.28125 1.960938,1.69922 0,1.42187 -0.718751,1.70312 -1.960938,1.70312 z m 12.300784,1.04297 h 1.371094 l 0.667966,-1.21484 h 3.499999 l 0.66407,1.21484 h 1.37109 l -2.98438,-5.49219 h -1.60156 z m 2.51953,-2.17187 1.269529,-2.3086 1.26953,2.3086 z m 12.023439,2.17187 h 3.96875 c 1.4375,0 2.68359,-0.8789 2.68359,-2.74609 0,-1.86719 -1.24609,-2.7461 -2.68359,-2.7461 h -3.96875 z m 1.23828,-1.04297 v -3.40234 h 2.21094 c 1.24219,0 1.96094,0.28125 1.96094,1.69922 0,1.42187 -0.71875,1.70312 -1.96094,1.70312 z m 22.36329,1.04297 h 5.80468 v -0.99609 h -4.5625 v -1.27735 h 4.5625 v -0.9414 h -4.5625 v -1.28125 h 4.5625 v -0.9961 h -5.80468 z m 22.75781,0 h 1.23828 v -2.22656 h 4.81641 v 2.22656 h 1.23828 v -5.49219 h -1.23828 v 2.23047 h -4.81641 v -2.23047 h -1.23828 z m 14.33985,0 h 1.23827 v -5.49219 h -1.23827 z m 11.47656,0.0781 c 1.18359,0 2.03125,-0.38282 2.56249,-0.96485 l 0.0391,0.88672 h 1.00391 v -2.93359 h -3.46485 v 0.87109 h 2.21094 c -0.0156,0.42188 -0.58984,1.16016 -2.11718,1.16016 -1.99219,0 -2.26563,-1.16016 -2.26563,-1.82813 0,-0.65625 0.26563,-1.79297 2.26563,-1.79297 1.66406,0 2.03906,0.71094 2.11718,1.16797 h 1.25391 c -0.0859,-1.32812 -1.17578,-2.21484 -3.37109,-2.21484 -2.26172,0 -3.50782,1.02734 -3.50782,2.82422 0,1.79687 1.2461,2.82422 3.27344,2.82422 z m 10.57422,-0.0781 h 1.23827 v -5.49219 h -1.23827 z m 8.28124,0 h 5.8047 v -0.99609 h -4.56641 v -1.27735 h 4.56641 v -0.9414 h -4.56641 v -1.28125 h 4.56641 v -0.9961 h -5.8047 z m 12.76954,0 h 1.24219 v -4.21875 l 4.125,4.21875 h 1.71093 v -5.49219 h -1.24218 v 4.22266 l -4.11719,-4.22266 h -1.71875 z m 14.12109,0 h 5.80469 v -0.99609 h -4.56641 v -1.27735 h 4.56641 v -0.9414 h -4.56641 v -1.28125 h 4.56641 v -0.9961 h -5.80469 z m 0,0"
     stroke="#545454"
     stroke-width="0.853056"
     stroke-opacity="1"
     stroke-miterlimit="4"
     id="path9210" />
  <path
     stroke-linecap="butt"
     fill="none"
     stroke-linejoin="miter"
     d="m 46.978353,245.97656 c 2.40625,0 3.449219,-1.04687 3.449219,-2.83203 0,-1.78125 -1.042969,-2.8164 -3.449219,-2.8164 -2.417969,0 -3.453126,1.02734 -3.453126,2.8164 0,1.79297 1.035157,2.83203 3.453126,2.83203 z m 0,-1.04687 c -1.546875,0 -2.210938,-0.51563 -2.210938,-1.78516 0,-1.26562 0.65625,-1.77343 2.210938,-1.77343 1.550781,0 2.210938,0.51562 2.210938,1.77343 0,1.26172 -0.664063,1.78516 -2.210938,1.78516 z m 10.417972,0.96875 h 5.019527 c 1.246096,0 1.789065,-0.66797 1.789065,-1.59375 0,-0.66016 -0.292968,-1.09766 -0.769529,-1.36328 0.289059,-0.30078 0.429685,-0.6836 0.429685,-1.08203 0,-0.80078 -0.382809,-1.45313 -1.628906,-1.45313 h -4.839842 z m 1.238278,-3.28125 v -1.27734 h 3.199222 c 0.433595,0 0.79297,0 0.79297,0.64062 0,0.63672 -0.359375,0.63672 -0.79297,0.63672 z m 0,2.30078 v -1.32031 h 3.531254 c 0.429686,0 0.796872,0 0.796872,0.66015 0,0.66016 -0.367186,0.66016 -0.796872,0.66016 z m 12.535156,0.98047 h 1.238284 v -1.51563 h 2.566406 l 0.925778,1.51563 h 1.457034 l -1.027342,-1.66406 c 0.77734,-0.26953 1.253908,-0.91797 1.253908,-1.84375 0,-1.22266 -0.851566,-1.98438 -2.101565,-1.98438 h -4.312503 z m 1.238284,-2.55859 v -1.89063 h 2.683591 c 0.488282,0 1.253908,0 1.253908,0.94141 0,0.94922 -0.765626,0.94922 -1.253908,0.94922 z m 12.066407,2.55859 h 1.371093 l 0.667966,-1.21875 h 3.500002 l 0.664064,1.21875 h 1.371093 l -2.988279,-5.49219 h -1.59766 z m 2.51953,-2.17578 1.26953,-2.30469 1.269531,2.30469 z m 15.56641,2.2539 c 1.96094,0 3.39063,-0.26953 3.39063,-1.72656 0,-1.38281 -1.34375,-1.49219 -3.50782,-1.61719 -1.69921,-0.10156 -2.07031,-0.21093 -2.07031,-0.6875 0,-0.45703 0.3711,-0.62109 1.86719,-0.62109 1.59375,0 2.23828,0.17969 2.23828,0.87109 h 1.23828 c 0,-1.35156 -1.26562,-1.86718 -3.32031,-1.86718 -2.02344,0 -3.261725,0.34375 -3.261725,1.55078 0,1.22656 0.949215,1.59375 3.308595,1.71094 1.91406,0.10156 2.26563,0.17968 2.26563,0.70703 0,0.48437 -0.52344,0.68359 -2.07031,0.68359 -1.91798,0 -2.46094,-0.30078 -2.46094,-0.96484 h -1.238282 c 0,1.57422 1.371092,1.96093 3.621092,1.96093 z m 23.71485,0 c 2.18749,0 3.26953,-0.86328 3.42968,-2.40234 h -1.25781 c -0.14063,0.98047 -0.91797,1.35547 -2.17187,1.35547 -1.48047,0 -2.21094,-0.51563 -2.21094,-1.78516 0,-1.26562 0.72266,-1.77343 2.21094,-1.77343 1.26171,0 2.03124,0.36718 2.17187,1.33984 h 1.25 c -0.15234,-1.53125 -1.23438,-2.38281 -3.42187,-2.38281 -2.41797,0 -3.44922,1.02734 -3.44922,2.8164 0,1.79297 1.03125,2.83203 3.44922,2.83203 z m 10.39453,-0.0781 h 1.23828 v -5.49219 h -1.23828 z m 11.18359,0 h 1.625 l 2.97266,-5.49219 h -1.40625 l -2.38281,4.47266 -2.38282,-4.47266 h -1.40625 z m 11.56251,0 h 1.24218 v -5.49219 h -1.24218 z m 8.28515,0 h 5.64844 v -1.04688 h -4.41016 v -4.44531 h -1.23828 z m 12.61328,0 h 5.80469 v -0.99609 h -4.5664 v -1.28125 h 4.5664 v -0.94141 h -4.5664 v -1.27734 h 4.5664 v -0.9961 h -5.80469 z m 16.31641,0.0781 c 1.96094,0 3.39062,-0.26953 3.39062,-1.72656 0,-1.38281 -1.34375,-1.49219 -3.50781,-1.61719 -1.70312,-0.10156 -2.07421,-0.21093 -2.07421,-0.6875 0,-0.45703 0.37109,-0.62109 1.86718,-0.62109 1.59375,0 2.23828,0.17969 2.23828,0.87109 h 1.23828 c 0,-1.35156 -1.26172,-1.86718 -3.3164,-1.86718 -2.02734,0 -3.26563,0.34375 -3.26563,1.55078 0,1.22656 0.94922,1.59375 3.3125,1.71094 1.91407,0.10156 2.26563,0.17968 2.26563,0.70703 0,0.48437 -0.52344,0.68359 -2.07032,0.68359 -1.92187,0 -2.46484,-0.30078 -2.46484,-0.96484 h -1.23828 c 0,1.57422 1.375,1.96093 3.625,1.96093 z m 0,0"
     stroke="#545454"
     stroke-width="0.853056"
     stroke-opacity="1"
     stroke-miterlimit="4"
     id="path9212" />
  <g
     fill="#ffd706"
     fill-opacity="1"
     id="g9220"
     transform="translate(-65.728684,-63.3125)">
    <g
       transform="translate(73.221333,298.75015)"
       id="g9218">
      <g
         id="g9216">
        <path
           d="m 3.929688,0.078125 c 1.960937,0 3.390624,-0.265625 3.390624,-1.726563 0,-1.378906 -1.34375,-1.488281 -3.507812,-1.613281 -1.703125,-0.101562 -2.070312,-0.214843 -2.070312,-0.691406 0,-0.457031 0.367187,-0.621094 1.867187,-0.621094 1.589844,0 2.234375,0.179688 2.234375,0.871094 h 1.238281 c 0,-1.347656 -1.261719,-1.867187 -3.316406,-1.867187 -2.023437,0 -3.261719,0.347656 -3.261719,1.554687 0,1.222656 0.949219,1.589844 3.308594,1.710937 1.914062,0.101563 2.265625,0.179688 2.265625,0.703126 0,0.488281 -0.523437,0.683593 -2.070313,0.683593 -1.921874,0 -2.460937,-0.296875 -2.460937,-0.964843 H 0.304688 c 0,1.578124 1.375,1.960937 3.625,1.960937 z m 0,0"
           id="path9214" />
      </g>
    </g>
  </g>
  <g
     fill="#ffd706"
     fill-opacity="1"
     id="g9228"
     transform="translate(-65.728684,-63.3125)">
    <g
       transform="translate(87.121298,298.75015)"
       id="g9226">
      <g
         id="g9224">
        <path
           d="M 0.382812,0 H 6.1875 V -0.996094 H 1.625 V -2.273438 H 6.1875 V -3.214844 H 1.625 v -1.28125 H 6.1875 V -5.492188 H 0.382812 Z m 0,0"
           id="path9222" />
      </g>
    </g>
  </g>
  <g
     fill="#ffd706"
     fill-opacity="1"
     id="g9236"
     transform="translate(-65.728684,-63.3125)">
    <g
       transform="translate(99.891691,298.75015)"
       id="g9234">
      <g
         id="g9232">
        <path
           d="m 3.578125,0.078125 c 1.183594,0 2.03125,-0.382813 2.5625,-0.964844 L 6.179688,0 H 7.183594 V -2.933594 H 3.71875 V -2.0625 H 5.929688 C 5.914062,-1.640625 5.34375,-0.902344 3.8125,-0.902344 c -1.992188,0 -2.265625,-1.160156 -2.265625,-1.828125 0,-0.660156 0.265625,-1.796875 2.265625,-1.796875 1.664062,0 2.039062,0.714844 2.117188,1.171875 H 7.183594 C 7.097656,-4.683594 6.007812,-5.570312 3.8125,-5.570312 c -2.257812,0 -3.507812,1.027343 -3.507812,2.824218 0,1.796875 1.25,2.824219 3.273437,2.824219 z m 0,0"
           id="path9230" />
      </g>
    </g>
  </g>
  <g
     fill="#ffd706"
     fill-opacity="1"
     id="g9244"
     transform="translate(-65.728684,-63.3125)">
    <g
       transform="translate(113.65831,298.75015)"
       id="g9242">
      <g
         id="g9240">
        <path
           d="m 3.835938,0.078125 c 2.40625,0 3.453124,-0.925781 3.453124,-2.832031 V -5.492188 H 6.046875 v 2.738282 c 0,0.808594 -0.210937,1.789062 -2.210937,1.789062 -2,0 -2.210938,-0.972656 -2.210938,-1.789062 V -5.492188 H 0.382812 v 2.738282 c 0,1.914062 1.035157,2.832031 3.453126,2.832031 z m 0,0"
           id="path9238" />
      </g>
    </g>
  </g>
  <g
     fill="#ffd706"
     fill-opacity="1"
     id="g9252"
     transform="translate(-65.728684,-63.3125)">
    <g
       transform="translate(127.60534,298.75015)"
       id="g9250">
      <g
         id="g9248">
        <path
           d="M 0.382812,0 H 1.625 V -1.515625 H 4.1875 L 5.113281,0 H 6.574219 L 5.546875,-1.664062 c 0.777344,-0.265626 1.253906,-0.917969 1.253906,-1.84375 0,-1.222657 -0.855469,-1.984376 -2.101562,-1.984376 H 0.382812 Z M 1.625,-2.558594 v -1.890625 h 2.679688 c 0.488281,0 1.257812,0 1.257812,0.941407 0,0.949218 -0.769531,0.949218 -1.257812,0.949218 z m 0,0"
           id="path9246" />
      </g>
    </g>
  </g>
  <g
     fill="#ffd706"
     fill-opacity="1"
     id="g9260"
     transform="translate(-65.728684,-63.3125)">
    <g
       transform="translate(140.98758,298.75015)"
       id="g9258">
      <g
         id="g9256">
        <path
           d="M 0.382812,0 H 1.625 V -5.492188 H 0.382812 Z m 0,0"
           id="path9254" />
      </g>
    </g>
  </g>
  <g
     fill="#ffd706"
     fill-opacity="1"
     id="g9268"
     transform="translate(-65.728684,-63.3125)">
    <g
       transform="translate(149.27107,298.75015)"
       id="g9266">
      <g
         id="g9264">
        <path
           d="m 0.382812,0 h 3.972657 c 1.433593,0 2.679687,-0.878906 2.679687,-2.746094 0,-1.867187 -1.246094,-2.746094 -2.679687,-2.746094 H 0.382812 Z M 1.625,-1.042969 v -3.40625 h 2.210938 c 1.238281,0 1.960937,0.285157 1.960937,1.703125 0,1.421875 -0.722656,1.703125 -1.960937,1.703125 z m 0,0"
           id="path9262" />
      </g>
    </g>
  </g>
  <g
     fill="#ffd706"
     fill-opacity="1"
     id="g9276"
     transform="translate(-65.728684,-63.3125)">
    <g
       transform="translate(162.88865,298.75015)"
       id="g9274">
      <g
         id="g9272">
        <path
           d="m 0.304688,0 h 1.375 L 2.34375,-1.214844 h 3.5 L 6.511719,0 H 7.882812 L 4.894531,-5.492188 H 3.292969 Z m 2.519531,-2.171875 1.269531,-2.308594 1.273438,2.308594 z m 0,0"
           id="path9270" />
      </g>
    </g>
  </g>
  <g
     fill="#ffd706"
     fill-opacity="1"
     id="g9284"
     transform="translate(-65.728684,-63.3125)">
    <g
       transform="translate(177.35341,298.75015)"
       id="g9282">
      <g
         id="g9280">
        <path
           d="m 0.382812,0 h 3.972657 c 1.433593,0 2.679687,-0.878906 2.679687,-2.746094 0,-1.867187 -1.246094,-2.746094 -2.679687,-2.746094 H 0.382812 Z M 1.625,-1.042969 v -3.40625 h 2.210938 c 1.238281,0 1.960937,0.285157 1.960937,1.703125 0,1.421875 -0.722656,1.703125 -1.960937,1.703125 z m 0,0"
           id="path9278" />
      </g>
    </g>
  </g>
  <g
     fill="#ffd706"
     fill-opacity="1"
     id="g9290"
     transform="translate(-65.728684,-63.3125)">
    <g
       transform="translate(190.97099,298.75015)"
       id="g9288">
      <g
         id="g9286" />
    </g>
  </g>
  <g
     fill="#ffd706"
     fill-opacity="1"
     id="g9298"
     transform="translate(-65.728684,-63.3125)">
    <g
       transform="translate(200.95668,298.75015)"
       id="g9296">
      <g
         id="g9294">
        <path
           d="M 0.382812,0 H 6.1875 V -0.996094 H 1.625 V -2.273438 H 6.1875 V -3.214844 H 1.625 v -1.28125 H 6.1875 V -5.492188 H 0.382812 Z m 0,0"
           id="path9292" />
      </g>
    </g>
  </g>
  <g
     fill="#ffd706"
     fill-opacity="1"
     id="g9304"
     transform="translate(-65.728684,-63.3125)">
    <g
       transform="translate(213.72708,298.75015)"
       id="g9302">
      <g
         id="g9300" />
    </g>
  </g>
  <g
     fill="#ffd706"
     fill-opacity="1"
     id="g9312"
     transform="translate(-65.728684,-63.3125)">
    <g
       transform="translate(223.71277,298.75015)"
       id="g9310">
      <g
         id="g9308">
        <path
           d="M 0.382812,0 H 1.625 V -2.226562 H 6.441406 V 0 H 7.679688 V -5.492188 H 6.441406 v 2.230469 H 1.625 V -5.492188 H 0.382812 Z m 0,0"
           id="path9306" />
      </g>
    </g>
  </g>
  <g
     fill="#ffd706"
     fill-opacity="1"
     id="g9320"
     transform="translate(-65.728684,-63.3125)">
    <g
       transform="translate(238.05202,298.75015)"
       id="g9318">
      <g
         id="g9316">
        <path
           d="M 0.382812,0 H 1.625 V -5.492188 H 0.382812 Z m 0,0"
           id="path9314" />
      </g>
    </g>
  </g>
  <g
     fill="#ffd706"
     fill-opacity="1"
     id="g9328"
     transform="translate(-65.728684,-63.3125)">
    <g
       transform="translate(246.3355,298.75015)"
       id="g9326">
      <g
         id="g9324">
        <path
           d="m 3.578125,0.078125 c 1.183594,0 2.03125,-0.382813 2.5625,-0.964844 L 6.179688,0 H 7.183594 V -2.933594 H 3.71875 V -2.0625 H 5.929688 C 5.914062,-1.640625 5.34375,-0.902344 3.8125,-0.902344 c -1.992188,0 -2.265625,-1.160156 -2.265625,-1.828125 0,-0.660156 0.265625,-1.796875 2.265625,-1.796875 1.664062,0 2.039062,0.714844 2.117188,1.171875 H 7.183594 C 7.097656,-4.683594 6.007812,-5.570312 3.8125,-5.570312 c -2.257812,0 -3.507812,1.027343 -3.507812,2.824218 0,1.796875 1.25,2.824219 3.273437,2.824219 z m 0,0"
           id="path9322" />
      </g>
    </g>
  </g>
  <g
     fill="#ffd706"
     fill-opacity="1"
     id="g9336"
     transform="translate(-65.728684,-63.3125)">
    <g
       transform="translate(260.10212,298.75015)"
       id="g9334">
      <g
         id="g9332">
        <path
           d="M 0.382812,0 H 1.625 V -5.492188 H 0.382812 Z m 0,0"
           id="path9330" />
      </g>
    </g>
  </g>
  <g
     fill="#ffd706"
     fill-opacity="1"
     id="g9344"
     transform="translate(-65.728684,-63.3125)">
    <g
       transform="translate(268.38561,298.75015)"
       id="g9342">
      <g
         id="g9340">
        <path
           d="M 0.382812,0 H 6.1875 V -0.996094 H 1.625 V -2.273438 H 6.1875 V -3.214844 H 1.625 v -1.28125 H 6.1875 V -5.492188 H 0.382812 Z m 0,0"
           id="path9338" />
      </g>
    </g>
  </g>
  <g
     fill="#ffd706"
     fill-opacity="1"
     id="g9352"
     transform="translate(-65.728684,-63.3125)">
    <g
       transform="translate(281.156,298.75015)"
       id="g9350">
      <g
         id="g9348">
        <path
           d="M 0.382812,0 H 1.625 V -4.21875 L 5.75,0 H 7.460938 V -5.492188 H 6.21875 v 4.222657 L 2.101562,-5.492188 h -1.71875 z m 0,0"
           id="path9346" />
      </g>
    </g>
  </g>
  <g
     fill="#ffd706"
     fill-opacity="1"
     id="g9360"
     transform="translate(-65.728684,-63.3125)">
    <g
       transform="translate(295.27562,298.75015)"
       id="g9358">
      <g
         id="g9356">
        <path
           d="M 0.382812,0 H 6.1875 V -0.996094 H 1.625 V -2.273438 H 6.1875 V -3.214844 H 1.625 v -1.28125 H 6.1875 V -5.492188 H 0.382812 Z m 0,0"
           id="path9354" />
      </g>
    </g>
  </g>
  <g
     fill="#ffd706"
     fill-opacity="1"
     id="g9368"
     transform="translate(-65.728684,-63.3125)">
    <g
       transform="translate(108.94919,309.20908)"
       id="g9366">
      <g
         id="g9364">
        <path
           d="m 3.757812,0.078125 c 2.40625,0 3.449219,-1.042969 3.449219,-2.832031 0,-1.78125 -1.042969,-2.816406 -3.449219,-2.816406 -2.417968,0 -3.453124,1.027343 -3.453124,2.816406 0,1.796875 1.035156,2.832031 3.453124,2.832031 z m 0,-1.042969 c -1.546874,0 -2.210937,-0.519531 -2.210937,-1.789062 0,-1.261719 0.65625,-1.773438 2.210937,-1.773438 1.550782,0 2.210938,0.519532 2.210938,1.773438 0,1.261718 -0.667969,1.789062 -2.210938,1.789062 z m 0,0"
           id="path9362" />
      </g>
    </g>
  </g>
  <g
     fill="#ffd706"
     fill-opacity="1"
     id="g9376"
     transform="translate(-65.728684,-63.3125)">
    <g
       transform="translate(122.73934,309.20908)"
       id="g9374">
      <g
         id="g9372">
        <path
           d="M 0.382812,0 H 5.40625 c 1.246094,0 1.785156,-0.667969 1.785156,-1.59375 0,-0.65625 -0.289062,-1.097656 -0.765625,-1.363281 0.289063,-0.296875 0.429688,-0.683594 0.429688,-1.082031 0,-0.800782 -0.382813,-1.453126 -1.632813,-1.453126 H 0.382812 Z M 1.625,-3.277344 v -1.28125 h 3.199219 c 0.429687,0 0.792969,0 0.792969,0.644532 0,0.636718 -0.363282,0.636718 -0.792969,0.636718 z m 0,2.296875 v -1.316406 h 3.527344 c 0.433594,0 0.800781,0 0.800781,0.65625 0,0.660156 -0.367187,0.660156 -0.800781,0.660156 z m 0,0"
           id="path9370" />
      </g>
    </g>
  </g>
  <g
     fill="#ffd706"
     fill-opacity="1"
     id="g9384"
     transform="translate(-65.728684,-63.3125)">
    <g
       transform="translate(136.51379,309.20908)"
       id="g9382">
      <g
         id="g9380">
        <path
           d="M 0.382812,0 H 1.625 V -1.515625 H 4.1875 L 5.113281,0 H 6.574219 L 5.546875,-1.664062 c 0.777344,-0.265626 1.253906,-0.917969 1.253906,-1.84375 0,-1.222657 -0.855469,-1.984376 -2.101562,-1.984376 H 0.382812 Z M 1.625,-2.558594 v -1.890625 h 2.679688 c 0.488281,0 1.257812,0 1.257812,0.941407 0,0.949218 -0.769531,0.949218 -1.257812,0.949218 z m 0,0"
           id="path9378" />
      </g>
    </g>
  </g>
  <g
     fill="#ffd706"
     fill-opacity="1"
     id="g9392"
     transform="translate(-65.728684,-63.3125)">
    <g
       transform="translate(149.89604,309.20908)"
       id="g9390">
      <g
         id="g9388">
        <path
           d="m 0.304688,0 h 1.375 L 2.34375,-1.214844 h 3.5 L 6.511719,0 H 7.882812 L 4.894531,-5.492188 H 3.292969 Z m 2.519531,-2.171875 1.269531,-2.308594 1.273438,2.308594 z m 0,0"
           id="path9386" />
      </g>
    </g>
  </g>
  <g
     fill="#ffd706"
     fill-opacity="1"
     id="g9400"
     transform="translate(-65.728684,-63.3125)">
    <g
       transform="translate(164.36079,309.20908)"
       id="g9398">
      <g
         id="g9396">
        <path
           d="m 3.929688,0.078125 c 1.960937,0 3.390624,-0.265625 3.390624,-1.726563 0,-1.378906 -1.34375,-1.488281 -3.507812,-1.613281 -1.703125,-0.101562 -2.070312,-0.214843 -2.070312,-0.691406 0,-0.457031 0.367187,-0.621094 1.867187,-0.621094 1.589844,0 2.234375,0.179688 2.234375,0.871094 h 1.238281 c 0,-1.347656 -1.261719,-1.867187 -3.316406,-1.867187 -2.023437,0 -3.261719,0.347656 -3.261719,1.554687 0,1.222656 0.949219,1.589844 3.308594,1.710937 1.914062,0.101563 2.265625,0.179688 2.265625,0.703126 0,0.488281 -0.523437,0.683593 -2.070313,0.683593 -1.921874,0 -2.460937,-0.296875 -2.460937,-0.964843 H 0.304688 c 0,1.578124 1.375,1.960937 3.625,1.960937 z m 0,0"
           id="path9394" />
      </g>
    </g>
  </g>
  <g
     fill="#ffd706"
     fill-opacity="1"
     id="g9406"
     transform="translate(-65.728684,-63.3125)">
    <g
       transform="translate(178.26076,309.20908)"
       id="g9404">
      <g
         id="g9402" />
    </g>
  </g>
  <g
     fill="#ffd706"
     fill-opacity="1"
     id="g9414"
     transform="translate(-65.728684,-63.3125)">
    <g
       transform="translate(188.24644,309.20908)"
       id="g9412">
      <g
         id="g9410">
        <path
           d="m 3.757812,0.078125 c 2.1875,0 3.269532,-0.863281 3.425782,-2.398437 H 5.929688 c -0.140626,0.980468 -0.917969,1.355468 -2.171876,1.355468 -1.484374,0 -2.210937,-0.519531 -2.210937,-1.789062 0,-1.261719 0.71875,-1.773438 2.210937,-1.773438 1.261719,0 2.03125,0.371094 2.171876,1.34375 h 1.246093 c -0.148437,-1.53125 -1.230469,-2.386718 -3.417969,-2.386718 -2.417968,0 -3.453124,1.027343 -3.453124,2.816406 0,1.796875 1.035156,2.832031 3.453124,2.832031 z m 0,0"
           id="path9408" />
      </g>
    </g>
  </g>
  <g
     fill="#ffd706"
     fill-opacity="1"
     id="g9422"
     transform="translate(-65.728684,-63.3125)">
    <g
       transform="translate(202.01306,309.20908)"
       id="g9420">
      <g
         id="g9418">
        <path
           d="M 0.382812,0 H 1.625 V -5.492188 H 0.382812 Z m 0,0"
           id="path9416" />
      </g>
    </g>
  </g>
  <g
     fill="#ffd706"
     fill-opacity="1"
     id="g9430"
     transform="translate(-65.728684,-63.3125)">
    <g
       transform="translate(210.29655,309.20908)"
       id="g9428">
      <g
         id="g9426">
        <path
           d="m 3.285156,0 h 1.625 L 7.882812,-5.492188 H 6.480469 L 4.09375,-1.019531 1.710938,-5.492188 h -1.40625 z m 0,0"
           id="path9424" />
      </g>
    </g>
  </g>
  <g
     fill="#ffd706"
     fill-opacity="1"
     id="g9438"
     transform="translate(-65.728684,-63.3125)">
    <g
       transform="translate(224.76131,309.20908)"
       id="g9436">
      <g
         id="g9434">
        <path
           d="M 0.382812,0 H 1.625 V -5.492188 H 0.382812 Z m 0,0"
           id="path9432" />
      </g>
    </g>
  </g>
  <g
     fill="#ffd706"
     fill-opacity="1"
     id="g9446"
     transform="translate(-65.728684,-63.3125)">
    <g
       transform="translate(233.0448,309.20908)"
       id="g9444">
      <g
         id="g9442">
        <path
           d="M 0.382812,0 H 6.03125 V -1.042969 H 1.625 V -5.492188 H 0.382812 Z m 0,0"
           id="path9440" />
      </g>
    </g>
  </g>
  <g
     fill="#ffd706"
     fill-opacity="1"
     id="g9454"
     transform="translate(-65.728684,-63.3125)">
    <g
       transform="translate(245.65832,309.20908)"
       id="g9452">
      <g
         id="g9450">
        <path
           d="M 0.382812,0 H 6.1875 V -0.996094 H 1.625 V -2.273438 H 6.1875 V -3.214844 H 1.625 v -1.28125 H 6.1875 V -5.492188 H 0.382812 Z m 0,0"
           id="path9448" />
      </g>
    </g>
  </g>
  <g
     fill="#ffd706"
     fill-opacity="1"
     id="g9462"
     transform="translate(-65.728684,-63.3125)">
    <g
       transform="translate(258.42871,309.20908)"
       id="g9460">
      <g
         id="g9458">
        <path
           d="m 3.929688,0.078125 c 1.960937,0 3.390624,-0.265625 3.390624,-1.726563 0,-1.378906 -1.34375,-1.488281 -3.507812,-1.613281 -1.703125,-0.101562 -2.070312,-0.214843 -2.070312,-0.691406 0,-0.457031 0.367187,-0.621094 1.867187,-0.621094 1.589844,0 2.234375,0.179688 2.234375,0.871094 h 1.238281 c 0,-1.347656 -1.261719,-1.867187 -3.316406,-1.867187 -2.023437,0 -3.261719,0.347656 -3.261719,1.554687 0,1.222656 0.949219,1.589844 3.308594,1.710937 1.914062,0.101563 2.265625,0.179688 2.265625,0.703126 0,0.488281 -0.523437,0.683593 -2.070313,0.683593 -1.921874,0 -2.460937,-0.296875 -2.460937,-0.964843 H 0.304688 c 0,1.578124 1.375,1.960937 3.625,1.960937 z m 0,0"
           id="path9456" />
      </g>
    </g>
  </g>
  <g
     clip-path="url(#b22fb54f5a)"
     id="g9466"
     transform="translate(-65.728684,-63.3125)">
    <path
       fill="#ffd706"
       d="M 247.77734,317.54687 H 126.96875 l 60.60156,-0.375 z m 0,0"
       fill-opacity="1"
       fill-rule="nonzero"
       id="path9464" />
  </g>
</svg>
