<?xml version="1.0" encoding="UTF-8" standalone="no"?>
<svg
   viewBox="0 0 500 500"
   version="1.2"
   stroke-linecap="round"
   stroke-linejoin="round"
   width="500"
   height="500"
   id="svg31"
   sodipodi:docname="neuquen.svg"
   inkscape:version="1.3.2 (091e20e, 2023-11-25, custom)"
   xmlns:inkscape="http://www.inkscape.org/namespaces/inkscape"
   xmlns:sodipodi="http://sodipodi.sourceforge.net/DTD/sodipodi-0.dtd"
   xmlns="http://www.w3.org/2000/svg"
   xmlns:svg="http://www.w3.org/2000/svg"><defs
   id="defs31" />
<sodipodi:namedview
   id="namedview31"
   pagecolor="#ffffff"
   bordercolor="#000000"
   borderopacity="0.25"
   inkscape:showpageshadow="2"
   inkscape:pageopacity="0.0"
   inkscape:pagecheckerboard="0"
   inkscape:deskcolor="#d1d1d1"
   inkscape:zoom="1.3039049"
   inkscape:cx="274.94336"
   inkscape:cy="255.77019"
   inkscape:window-width="1280"
   inkscape:window-height="657"
   inkscape:window-x="-8"
   inkscape:window-y="-8"
   inkscape:window-maximized="1"
   inkscape:current-layer="svg31" />
<path
   d="M133.8114099534696,332.1739808285024L139.80009033895203,314.8195468425497L136.54538573492664,279.0045994985585L176.8089035467574,257.21961479831816L192.06249158261653,266.46665761956456L197.8048570715373,293.2535211565764L189.65135571412338,290.9675611321345L185.80716934309294,333.4400791902931L172.37762681548065,341.02516030145216Z"
   data-id="ARG.15.1"
   data-name="Aluminé"
   fill="transparent"
   stroke="black"
   fill-opacity="1"
   id="path1"
   style="stroke:#000000;stroke-opacity:1;fill:#000000;fill-opacity:0" />
<path
   d="M113.39298116188002,432.6020491136219L147.2995419467734,450.54461349216535L178.265270265244,451.3802504760124L160.82234933812651,465.67974504297035L167.01788640858285,486.00292879655854L152.42910945275253,500L103.37836749139842,493.33289170576745L95.95723445505973,462.6752228636401L104.81321154901616,452.70007007382355L100.90505504707926,444.9635634700844L107.02466495281988,429.8694284746239Z"
   data-id="ARG.15.10"
   data-name="Los Lagos"
   fill="transparent"
   stroke="black"
   fill-opacity="1"
   id="path2"
   style="stroke:#000000;stroke-opacity:1;fill:#000000;fill-opacity:0" />
<path
   d="M156.35041869188353,111.84206002827841L162.86999137868588,97.2985331005757L154.19336979193213,84.70337407425905L162.0939798841946,82.22639183164938L156.58358085124655,72.12009227650378L161.3018263940512,53.81979615541104L168.15918528608017,54.239019798206755L167.36703179593587,34.846891753797536L175.11279830031435,35.65537383899391L178.99106221771763,26.898264434942575L194.06051193284566,29.212594147733398L193.85664450632976,13.973011575739292L203.94897889659478,1.689943747909183L211.58772994833907,6.294325182904686L211.09211089677046,122.99908720443182L163.7625839528664,122.7595120295291Z"
   data-id="ARG.15.11"
   data-name="Minas"
   fill="transparent"
   stroke="black"
   fill-opacity="1"
   id="path3"
   style="stroke:#000000;stroke-opacity:1;fill:#000000;fill-opacity:0" />
<path
   d="M156.35041869188353,111.84206002827841L163.7625839528664,122.7595120295291L211.09211089677046,122.99908720443182L230.34233748478619,127.3236813779954L240.07177589881667,137.15607716629756L244.79002144161677,149.59998285558595L199.82021512080428,186.53486799841812L181.18398221910593,179.3739234851937L164.00411603589419,184.48312781084724L154.14494380499218,154.20195690199307L160.9640401888164,133.61927482183273Z"
   data-id="ARG.15.12"
   data-name="Ñorquín"
   fill="transparent"
   stroke="black"
   fill-opacity="1"
   id="path4"
   style="stroke:#000000;stroke-opacity:1;fill:#000000;fill-opacity:0" />
<path
   d="M244.79002144161677,149.59998285558595L240.07177589881667,137.15607716629756L247.30877061442698,110.02166922356946L245.90202558627152,52.86703431118167L267.2250039858545,74.07696512762504L271.9659678929047,96.36457798537413L288.48819721637483,104.33282243480198L306.36276706415447,101.55603500679717L321.64146487101425,108.69082861695733L325.5544041864796,122.89302627988172L366.26930002477,131.91627707335556L371.46343551334667,140.9366196649421L386.1317267440363,144.0857882361247L386.10542126964265,161.24907752516265L257.60855954136605,160.04504417158887Z"
   data-id="ARG.15.13"
   data-name="Pehuenches"
   fill="transparent"
   stroke="black"
   fill-opacity="1"
   id="path5"
   style="stroke:#000000;stroke-opacity:1;fill:#000000;fill-opacity:0" />
<path
   d="M338.14336723700126,325.8867299373478L327.03946778611044,337.2354750544241L308.75955449205867,343.0481409708659L293.7373350604894,363.32048240325594L281.87296825907106,368.61885642131347L259.16536534387615,345.3067492655391L245.1792228922459,330.87598158123L256.2299135426665,320.18400862555654L270.06181025810383,306.7528722243733L275.2565435983706,312.3285870612717L300.97971044131646,286.7125005201983Z"
   data-id="ARG.15.14"
   data-name="Picún Leufú"
   fill="transparent"
   stroke="black"
   fill-opacity="1"
   id="path6"
   style="stroke:#000000;stroke-opacity:1;fill:#000000;fill-opacity:0" />
<path
   d="M283.3753695577352,233.97980170185474L268.19770868658634,237.14384661429676L206.7080644490652,290.53647538223004L199.3622607257521,297.4624068663934L197.8048570715373,293.2535211565764L192.06249158261653,266.46665761956456L176.8089035467574,257.21961479831816L183.20173167513076,241.61728129673475L169.89056378227633,226.8749238330738L167.01967996365875,198.11152465531086L183.79121344213672,218.8795588817743L198.63288166312122,212.45383095365878L203.23693753300267,217.67511023687985L268.5689745864902,220.8796682554198Z"
   data-id="ARG.15.15"
   data-name="Picunches"
   fill="transparent"
   stroke="black"
   fill-opacity="1"
   id="path7"
   style="stroke:#000000;stroke-opacity:1;fill:#000000;fill-opacity:0" />
<path
   d="M256.2299135426665,320.18400862555654L206.7080644490652,290.53647538223004L268.19770868658634,237.14384661429676L283.3753695577352,233.97980170185474L298.8059216940246,246.7139461283059L280.2629536560762,264.70005014907474L300.97971044131646,286.7125005201983L275.2565435983706,312.3285870612717L270.06181025810383,306.7528722243733Z"
   data-id="ARG.15.16"
   data-name="Zapala"
   fill="transparent"
   stroke="black"
   fill-opacity="1"
   id="path8"
   style="stroke:#000000;stroke-opacity:1;fill:#008cff;fill-opacity:1" />
<path
   d="M298.8059216940246,246.7139461283059L283.3753695577352,233.97980170185474L268.5689745864902,220.8796682554198L271.94444523203583,207.697054006901L260.1500270784218,194.93865191477107L257.60855954136605,160.04504417158887L386.10542126964265,161.24907752516265L385.95894760543615,254.70425200232103L339.3426577284981,223.55941594476235L319.141249100614,246.323767701595Z"
   data-id="ARG.15.2"
   data-name="Añelo"
   fill="transparent"
   stroke="black"
   fill-opacity="1"
   id="path9"
   style="stroke:#000000;stroke-opacity:1;fill:#008cff;fill-opacity:1" />
<path
   d="M256.2299135426665,320.18400862555654L245.1792228922459,330.87598158123L259.16536534387615,345.3067492655391L232.6703719682755,370.9468160119977L218.88809694316024,356.3527138146128L195.1832774079312,379.1114896160948L183.0851505954497,372.04353302258096L181.2204511722366,377.3029186911708L172.37762681548065,341.02516030145216L185.80716934309294,333.4400791902931L189.65135571412338,290.9675611321345L197.8048570715373,293.2535211565764L199.3622607257521,297.4624068663934L206.7080644490652,290.53647538223004Z"
   data-id="ARG.15.3"
   data-name="Catán Lil"
   fill="transparent"
   stroke="black"
   fill-opacity="1"
   id="path10"
   style="stroke:#000000;stroke-opacity:1;fill:#000000;fill-opacity:0" />
<path
   d="M245.90202558627152,52.86703431118167L247.30877061442698,110.02166922356946L240.07177589881667,137.15607716629756L230.34233748478619,127.3236813779954L211.09211089677046,122.99908720443182L211.58772994833907,6.294325182904686L216.6359896243912,0L219.82971335597267,20.680707864941724L231.30308515170327,22.65654487512802Z"
   data-id="ARG.15.4"
   data-name="Chos Malal"
   fill="transparent"
   stroke="black"
   fill-opacity="1"
   id="path11"
   style="stroke:#000000;stroke-opacity:1;fill:#000000;fill-opacity:0" />
<path
   d="M184.12601038891717,395.1850965958711L181.2204511722366,377.3029186911708L183.0851505954497,372.04353302258096L195.1832774079312,379.1114896160948L218.88809694316024,356.3527138146128L232.6703719682755,370.9468160119977L259.16536534387615,345.3067492655391L281.87296825907106,368.61885642131347L250.48754805374574,386.1585030866222L252.0013085345281,406.019387157221L234.955361130028,436.84664140321684L205.74791463383372,440.0235392577001L195.99336644879895,432.5604175446674L198.27297494533923,413.68429211846933Z"
   data-id="ARG.15.5"
   data-name="Collón Curá"
   fill="transparent"
   stroke="black"
   fill-opacity="1"
   id="path12"
   style="stroke:#000000;stroke-opacity:1;fill:#000000;fill-opacity:0" />
<path
   d="M338.14336723700126,325.8867299373478L300.97971044131646,286.7125005201983L280.2629536560762,264.70005014907474L298.8059216940246,246.7139461283059L319.141249100614,246.323767701595L339.3426577284981,223.55941594476235L385.95894760543615,254.70425200232103L395.32788144998085,261.0355172529039L404.04276554493845,283.7687671745066L382.42205700339946,284.1809859473742L360.74754180970376,294.7114058215393Z"
   data-id="ARG.15.6"
   data-name="Confluencia"
   fill="transparent"
   stroke="black"
   fill-opacity="1"
   id="path13"
   style="stroke:#000000;stroke-opacity:1;fill:#008cff;fill-opacity:1" />
<path
   d="M116.43843767416911,390.39746371263436L123.90979025252454,377.11199579188724L116.05102977861316,371.4077510636798L115.12974032328475,345.53831303969446L130.81318372474288,349.3848589317122L128.29563025530933,338.9051039028759L133.8114099534696,332.1739808285024L172.37762681548065,341.02516030145216L181.2204511722366,377.3029186911708L184.12601038891717,395.1850965958711L172.0099480257113,399.84350078582156L164.59359780289833,393.8285274126729Z"
   data-id="ARG.15.7"
   data-name="Huiliches"
   fill="transparent"
   stroke="black"
   fill-opacity="1"
   id="path14"
   style="stroke:#000000;stroke-opacity:1;fill:#000000;fill-opacity:0" />
<path
   d="M205.74791463383372,440.0235392577001L178.265270265244,451.3802504760124L147.2995419467734,450.54461349216535L113.39298116188002,432.6020491136219L118.77783133977755,424.6682951398525L105.06191785233204,410.8036769669475L105.83553794007366,397.6078910785518L117.46853613720214,398.28826909676536L116.43843767416911,390.39746371263436L164.59359780289833,393.8285274126729L172.0099480257113,399.84350078582156L184.12601038891717,395.1850965958711L198.27297494533923,413.68429211846933L195.99336644879895,432.5604175446674Z"
   data-id="ARG.15.8"
   data-name="Lacar"
   fill="transparent"
   stroke="black"
   fill-opacity="1"
   id="path15"
   style="stroke:#000000;stroke-opacity:1;fill:#000000;fill-opacity:0" />
<path
   d="M167.01967996365875,198.11152465531086L164.00411603589419,184.48312781084724L181.18398221910593,179.3739234851937L199.82021512080428,186.53486799841812L244.79002144161677,149.59998285558595L257.60855954136605,160.04504417158887L260.1500270784218,194.93865191477107L271.94444523203583,207.697054006901L268.5689745864902,220.8796682554198L203.23693753300267,217.67511023687985L198.63288166312122,212.45383095365878L183.79121344213672,218.8795588817743Z"
   data-id="ARG.15.9"
   data-name="Loncopué"
   fill="transparent"
   stroke="black"
   fill-opacity="1"
   id="path16"
   style="stroke:#000000;stroke-opacity:1;fill:#000000;fill-opacity:0" />
<text
   x="165.4121856689453"
   y="300.1260070800781"
   dominant-baseline="middle"
   text-anchor="middle"
   font-size="8px"
   font-family="sans-serif"
   fill="black"
   stroke="black"
   stroke-width="0.2px"
   stroke-linejoin="round"
   id="text16"
   style="stroke:#000000;stroke-opacity:1;fill:#000000;fill-opacity:0"><tspan
     x="165.4121856689453"
     id="tspan16"
     style="stroke:#000000;stroke-opacity:1;fill:#000000;fill-opacity:0" /></text>
,<text
   x="122.52082824707031"
   y="464.8453369140625"
   dominant-baseline="middle"
   text-anchor="middle"
   font-size="8px"
   font-family="sans-serif"
   fill="black"
   stroke="black"
   stroke-width="0.2px"
   stroke-linejoin="round"
   id="text17"
   style="stroke:#000000;stroke-opacity:1;fill:#000000;fill-opacity:0"><tspan
     x="122.52082824707031"
     id="tspan17"
     style="stroke:#000000;stroke-opacity:1;fill:#000000;fill-opacity:0" /></text>
,<text
   x="187.75244140625"
   y="72.72337341308594"
   dominant-baseline="middle"
   text-anchor="middle"
   font-size="8px"
   font-family="sans-serif"
   fill="black"
   stroke="black"
   stroke-width="0.2px"
   stroke-linejoin="round"
   id="text18"
   style="stroke:#000000;stroke-opacity:1;fill:#000000;fill-opacity:0"><tspan
     x="187.75244140625"
     id="tspan18"
     style="stroke:#000000;stroke-opacity:1;fill:#000000;fill-opacity:0" /></text>
,<text
   x="194.93797302246094"
   y="150.76976013183594"
   dominant-baseline="middle"
   text-anchor="middle"
   font-size="8px"
   font-family="sans-serif"
   fill="black"
   stroke="black"
   stroke-width="0.2px"
   stroke-linejoin="round"
   id="text19"
   style="stroke:#000000;stroke-opacity:1;fill:#000000;fill-opacity:0"><tspan
     x="194.93797302246094"
     id="tspan19"
     style="stroke:#000000;stroke-opacity:1;fill:#000000;fill-opacity:0" /></text>
,<text
   x="297.6182556152344"
   y="128.95816040039062"
   dominant-baseline="middle"
   text-anchor="middle"
   font-size="8px"
   font-family="sans-serif"
   fill="black"
   stroke="black"
   stroke-width="0.2px"
   stroke-linejoin="round"
   id="text20"
   style="stroke:#000000;stroke-opacity:1;fill:#000000;fill-opacity:0"><tspan
     x="297.6182556152344"
     id="tspan20"
     style="stroke:#000000;stroke-opacity:1;fill:#000000;fill-opacity:0" /></text>
,<text
   x="291.3632507324219"
   y="328.2425231933594"
   dominant-baseline="middle"
   text-anchor="middle"
   font-size="8px"
   font-family="sans-serif"
   fill="black"
   stroke="black"
   stroke-width="0.2px"
   stroke-linejoin="round"
   id="text21"
   style="stroke:#000000;stroke-opacity:1;fill:#000000;fill-opacity:0"><tspan
     x="291.3632507324219"
     id="tspan21"
     style="stroke:#000000;stroke-opacity:1;fill:#000000;fill-opacity:0" /></text>
,<text
   x="205.8314666748047"
   y="247.61544799804688"
   dominant-baseline="middle"
   text-anchor="middle"
   font-size="8px"
   font-family="sans-serif"
   fill="black"
   stroke="black"
   stroke-width="0.2px"
   stroke-linejoin="round"
   id="text22"
   style="stroke:#000000;stroke-opacity:1;fill:#000000;fill-opacity:0"><tspan
     x="205.8314666748047"
     id="tspan22"
     style="stroke:#000000;stroke-opacity:1;fill:#000000;fill-opacity:0" /></text>
,<text
   x="259.5779724121094"
   y="278.9792175292969"
   dominant-baseline="middle"
   text-anchor="middle"
   font-size="8px"
   font-family="sans-serif"
   fill="black"
   stroke="black"
   stroke-width="0.2px"
   stroke-linejoin="round"
   id="text23"
   style="stroke:#000000;stroke-opacity:1;fill:#000000;fill-opacity:0"><tspan
     x="259.5779724121094"
     id="tspan23"
     style="stroke:#000000;stroke-opacity:1;fill:#000000;fill-opacity:0" /></text>
,<text
   x="325.93902587890625"
   y="199.01296997070312"
   dominant-baseline="middle"
   text-anchor="middle"
   font-size="8px"
   font-family="sans-serif"
   fill="black"
   stroke="black"
   stroke-width="0.2px"
   stroke-linejoin="round"
   id="text24"
   style="stroke:#000000;stroke-opacity:1;fill:#000000;fill-opacity:0"><tspan
     x="325.93902587890625"
     id="tspan24"
     style="stroke:#000000;stroke-opacity:1;fill:#000000;fill-opacity:0" /></text>
,<text
   x="206.559814453125"
   y="334.6850891113281"
   dominant-baseline="middle"
   text-anchor="middle"
   font-size="8px"
   font-family="sans-serif"
   fill="black"
   stroke="black"
   stroke-width="0.2px"
   stroke-linejoin="round"
   id="text25"
   style="stroke:#000000;stroke-opacity:1;fill:#000000;fill-opacity:0"><tspan
     x="206.559814453125"
     id="tspan25"
     style="stroke:#000000;stroke-opacity:1;fill:#000000;fill-opacity:0" /></text>
,<text
   x="229.200439453125"
   y="68.98822021484375"
   dominant-baseline="middle"
   text-anchor="middle"
   font-size="8px"
   font-family="sans-serif"
   fill="black"
   stroke="black"
   stroke-width="0.2px"
   stroke-linejoin="round"
   id="text26"
   style="stroke:#000000;stroke-opacity:1;fill:#000000;fill-opacity:0"><tspan
     x="229.200439453125"
     id="tspan26"
     style="stroke:#000000;stroke-opacity:1;fill:#000000;fill-opacity:0" /></text>
,<text
   x="217.47283935546875"
   y="392.5044250488281"
   dominant-baseline="middle"
   text-anchor="middle"
   font-size="8px"
   font-family="sans-serif"
   fill="black"
   stroke="black"
   stroke-width="0.2px"
   stroke-linejoin="round"
   id="text27"
   style="stroke:#000000;stroke-opacity:1;fill:#000000;fill-opacity:0"><tspan
     x="217.47283935546875"
     id="tspan27"
     style="stroke:#000000;stroke-opacity:1;fill:#000000;fill-opacity:0" /></text>
,<text
   x="340.81103515625"
   y="271.1539611816406"
   dominant-baseline="middle"
   text-anchor="middle"
   font-size="8px"
   font-family="sans-serif"
   fill="black"
   stroke="black"
   stroke-width="0.2px"
   stroke-linejoin="round"
   id="text28"
   style="stroke:#000000;stroke-opacity:1;fill:#000000;fill-opacity:0"><tspan
     x="340.81103515625"
     id="tspan28"
     style="stroke:#000000;stroke-opacity:1;fill:#000000;fill-opacity:0" /></text>
,<text
   x="149.62786865234375"
   y="365.9271545410156"
   dominant-baseline="middle"
   text-anchor="middle"
   font-size="8px"
   font-family="sans-serif"
   fill="black"
   stroke="black"
   stroke-width="0.2px"
   stroke-linejoin="round"
   id="text29"
   style="stroke:#000000;stroke-opacity:1;fill:#000000;fill-opacity:0"><tspan
     x="149.62786865234375"
     id="tspan29"
     style="stroke:#000000;stroke-opacity:1;fill:#000000;fill-opacity:0" /></text>
,<text
   x="155.40492248535156"
   y="420.8218688964844"
   dominant-baseline="middle"
   text-anchor="middle"
   font-size="8px"
   font-family="sans-serif"
   fill="black"
   stroke="black"
   stroke-width="0.2px"
   stroke-linejoin="round"
   id="text30"
   style="stroke:#000000;stroke-opacity:1;fill:#000000;fill-opacity:0"><tspan
     x="155.40492248535156"
     id="tspan30"
     style="stroke:#000000;stroke-opacity:1;fill:#000000;fill-opacity:0" /></text>
,<text
   x="223.5592803955078"
   y="193.34413146972656"
   dominant-baseline="middle"
   text-anchor="middle"
   font-size="8px"
   font-family="sans-serif"
   fill="black"
   stroke="black"
   stroke-width="0.2px"
   stroke-linejoin="round"
   id="text31"
   style="stroke:#000000;stroke-opacity:1;fill:#000000;fill-opacity:0"><tspan
     x="223.5592803955078"
     id="tspan31"
     style="stroke:#000000;stroke-opacity:1;fill:#000000;fill-opacity:0" /></text>
</svg>
