<svg 
      xmlns="http://www.w3.org/2000/svg"
      xmlns:xlink="http://www.w3.org/1999/xlink"
      viewBox="0 0 500 500" 
      version="1.2" 
      stroke-linecap="round" 
      stroke-linejoin="round" 
      width="500" 
      height="500"
    >
    <path
          d="M103.67607127648262,492.6513417699739L96.27000662790942,462.0559214383784L105.10800223597926,452.1010223396711L107.31496542162768,429.31673654564884L113.98119913963001,432.034793836006L119.08066278525894,424.90256298775785L105.35620370656216,410.28969640379455L106.12825250697915,397.1207032505072L117.73763087446059,397.7997000231803L124.16580676938156,376.6664231867808L116.32300300220595,370.97376112365373L115.40358391879727,345.1568492085207L132.61360079020142,345.4553078013091L128.54274178965534,338.53710784711893L140.02384223480476,314.50045439466476L136.77574636205736,278.7582270793414L151.36354081248192,266.30546124320244L174.33588535028048,260.2384805507736L183.39105792938153,242.41015098895832L169.87959824366135,226.25128833043118L170.43447085507069,195.6650612404901L154.33957015483702,154.208986939017L161.14482056377074,133.66809589606555L153.59138641423033,116.50616291271399L163.04690188200857,97.42110069654291L154.38789774162888,84.85151549680631L162.27246634100447,82.3795626378701L156.91943184049433,71.60230054977319L161.48192108305102,54.030643974545455L168.32535621330317,54.44901695899853L167.5348117373751,35.0962632653609L175.26485061401854,35.903103151511914L179.13523982764946,27.163774324150836L194.17409227615826,29.47340561035253L193.97063906351104,14.264765480667393L203.64154144687927,2.2459633755552204L213.576753453729,6.593910006215992L216.18764042096245,4.547473508864641e-13L220.01984491327767,21.149892650320908L231.1775685975299,22.74512801292576L238.67969251656814,45.136542262969215L267.19002987403655,74.24668230828775L271.54727506648123,96.20518374811536L288.4100493351516,104.44110782923417L314.9407425614572,105.14351121971549L325.40099605045907,122.96362691762215L345.137178418453,123.28004216075851L385.85532086043077,144.11335800579627L385.6530610180771,254.45294938550796L403.7299933720906,283.51272168292144L382.15318356386433,283.9241029265586L360.5226767845461,294.4331419834798L327.111557076968,336.7169871001074L308.64024712169794,342.67173234738675L286.9715556210631,367.5975115341662L253.54611625197776,381.7189217603486L251.99724438794328,405.51512066920486L234.98590803003572,436.2797819964853L207.1909390761548,438.831481975893L171.4594946072475,453.6724073845912L160.93122448564736,465.2890736951176L168.1022139548504,480.09811883827115L159.60131886605996,495.04885410975567L147.4072351938621,500.00000000000045Z"
          data-id="ARG.15"
          data-name="Neuquén"
          fill="transparent"
          stroke="black"
          fill-opacity="1"
        />
		
    <text
            x="288.4324951171875"
            y="249.58817291259766"
            dominant-baseline="middle"
            text-anchor="middle"
            font-size="8px"
            font-family="sans-serif"
            fill="black"
            stroke="black"
            stroke-width="0.2px"
            stroke-linejoin="round"
          >
            <tspan x="288.4324951171875" ></tspan>
         </text>
  </svg>