<?xml version="1.0" encoding="UTF-8" standalone="no"?>
<svg
   width="200.57292"
   zoomAndPan="magnify"
   viewBox="0 0 150.42969 179.99609"
   height="239.9948"
   preserveAspectRatio="xMidYMid meet"
   version="1.0"
   id="svg1602"
   sodipodi:docname="newlogo.svg"
   inkscape:version="1.1.1 (3bf5ae0d25, 2021-09-20)"
   xmlns:inkscape="http://www.inkscape.org/namespaces/inkscape"
   xmlns:sodipodi="http://sodipodi.sourceforge.net/DTD/sodipodi-0.dtd"
   xmlns="http://www.w3.org/2000/svg"
   xmlns:svg="http://www.w3.org/2000/svg">
  <sodipodi:namedview
     id="namedview1604"
     pagecolor="#ffffff"
     bordercolor="#666666"
     borderopacity="1.0"
     inkscape:pageshadow="2"
     inkscape:pageopacity="0.0"
     inkscape:pagecheckerboard="0"
     showgrid="false"
     inkscape:zoom="2.5568981"
     inkscape:cx="103.05456"
     inkscape:cy="110.87653"
     inkscape:window-width="1024"
     inkscape:window-height="705"
     inkscape:window-x="-8"
     inkscape:window-y="-8"
     inkscape:window-maximized="1"
     inkscape:current-layer="svg1602" />
  <defs
     id="defs1238">
    <g
       id="g1215" />
    <clipPath
       id="57c6cb3fa5">
      <path
         d="m 113.37891,63.308594 h 148.5 V 243.30859 h -148.5 z m 0,0"
         clip-rule="nonzero"
         id="path1217" />
    </clipPath>
    <clipPath
       id="2880d0fac4">
      <path
         d="m 111,218.89062 h 51.59766 v 3.75 H 111 Z m 0,0"
         clip-rule="nonzero"
         id="path1220" />
    </clipPath>
    <clipPath
       id="eabaa70e7a">
      <path
         d="M 113.37891,223.78125 H 165 v 3.75 h -51.62109 z m 0,0"
         clip-rule="nonzero"
         id="path1223" />
    </clipPath>
    <clipPath
       id="20ad972134">
      <path
         d="m 116,228.67578 h 51.65625 v 3.75 H 116 Z m 0,0"
         clip-rule="nonzero"
         id="path1226" />
    </clipPath>
    <clipPath
       id="58acae361a">
      <path
         d="m 119,233.5625 h 56 v 3.75 h -56 z m 0,0"
         clip-rule="nonzero"
         id="path1229" />
    </clipPath>
    <clipPath
       id="10330cd607">
      <path
         d="m 176,145.80859 h 68 v 61.5 h -68 z m 0,0"
         clip-rule="nonzero"
         id="path1232" />
    </clipPath>
    <clipPath
       id="b22fb54f5a">
      <path
         d="m 126,317.17187 h 122 v 0.75 H 126 Z m 0,0"
         clip-rule="nonzero"
         id="path1235" />
    </clipPath>
  </defs>
  <g
     clip-path="url(#57c6cb3fa5)"
     id="g1242"
     transform="translate(-111.39063,-63.3125)">
    <path
       fill="#ffffff"
       d="m 123.85547,120.77344 50.11328,67.38281 -51.32812,-54.07422 v 62.05859 l 32.51953,18.62891 18.32421,10.64453 13.34766,17.90625 c -0.48828,-0.12109 -1.09375,-0.24219 -1.57812,-0.60547 l -34.70313,-19.96093 -34.82422,-19.96094 c -1.45703,-0.84375 -2.30859,-2.41797 -2.30859,-3.99219 v -80.08203 c 0,-1.81641 1.09375,-3.50781 2.67187,-4.23437 l 1.21094,-0.60547 z m 113.9375,-18.50781 V 72.507812 h -6.91406 v 20.078126 l -9.34375,-5.199219 V 63.3125 h 25.48046 v 44.27734 l 12.5,7.13672 c 1.45313,0.84375 2.30469,2.41797 2.30469,3.99219 v 80.08203 c 0,1.81641 -1.09375,3.39063 -2.79297,4.11328 l -34.33984,19.83985 -27.54297,15.84765 -0.60547,-0.60547 -0.36719,1.21094 -5.09375,-6.89844 -0.48437,-0.48047 0.12109,-0.12109 -50.23828,-67.38281 58.97266,62.30078 20.6289,-11.85547 32.39844,-18.62891 v -74.76171 l -14.68359,-8.46875 z m -47.8086,-27.582036 34.70313,20.082031 6.19141,3.507813 v 10.644532 l -10.80079,-6.28906 -32.51953,-18.632816 -32.39843,18.632816 -22.69141,13.0664 -5.58203,-7.3789 23.66406,-13.550785 34.70313,-20.082031 c 1.57812,-0.847656 3.27343,-0.726563 4.73046,0"
       fill-opacity="1"
       fill-rule="nonzero"
       id="path1240" />
  </g>
  <path
     fill="#ffffff"
     d="m 93.882815,41.97656 v 11.73438 c 0,0.96875 -0.84766,1.8164 -1.82032,1.8164 h -11.76953 c -0.96875,0 -1.82031,-0.84765 -1.82031,-1.8164 V 41.97656 c 0,-0.96484 0.85156,-1.8125 1.82031,-1.8125 h 11.76953 c 0.97266,0 1.82032,0.84766 1.82032,1.8125"
     fill-opacity="1"
     fill-rule="evenodd"
     id="path1244" />
  <path
     fill="#ffffff"
     d="M 93.882815,63.39063 V 75.125 c 0,0.96875 -0.84766,1.8125 -1.82032,1.8125 h -11.76953 c -0.96875,0 -1.82031,-0.84375 -1.82031,-1.8125 V 63.39063 c 0,-1.08985 0.85156,-1.81641 1.82031,-1.81641 h 11.76953 c 0.97266,0 1.82032,0.72656 1.82032,1.81641"
     fill-opacity="1"
     fill-rule="evenodd"
     id="path1246" />
  <path
     fill="#ffffff"
     d="m 73.984375,41.97656 v 11.73438 c 0,0.96875 -0.85156,1.8164 -1.82031,1.8164 h -11.76953 c -1.09375,0 -1.82032,-0.84765 -1.82032,-1.8164 V 41.97656 c 0,-0.96484 0.72657,-1.8125 1.82032,-1.8125 h 11.76953 c 0.96875,0 1.82031,0.84766 1.82031,1.8125"
     fill-opacity="1"
     fill-rule="evenodd"
     id="path1248" />
  <path
     fill="#ffffff"
     d="M 73.984375,63.39063 V 75.125 c 0,0.96875 -0.85156,1.8125 -1.82031,1.8125 h -11.76953 c -1.09375,0 -1.82032,-0.84375 -1.82032,-1.8125 V 63.39063 c 0,-1.08985 0.72657,-1.81641 1.82032,-1.81641 h 11.76953 c 0.96875,0 1.82031,0.72656 1.82031,1.81641"
     fill-opacity="1"
     fill-rule="evenodd"
     id="path1250" />
  <g
     clip-path="url(#2880d0fac4)"
     id="g1254"
     transform="translate(-111.39063,-63.3125)">
    <path
       fill="#ffffff"
       d="m 160.37109,218.89062 h -47.29296 c -0.9336,0 -1.6875,0.83985 -1.6875,1.875 0,1.03516 0.7539,1.875 1.6875,1.875 h 47.29296 c 0.9336,0 1.6875,-0.83984 1.6875,-1.875 0,-1.03515 -0.7539,-1.875 -1.6875,-1.875 z m 0,0"
       fill-opacity="1"
       fill-rule="nonzero"
       id="path1252" />
  </g>
  <g
     clip-path="url(#eabaa70e7a)"
     id="g1258"
     transform="translate(-111.39063,-63.3125)">
    <path
       fill="#ffffff"
       d="m 162.89844,223.78125 h -47.29297 c -0.92969,0 -1.6875,0.83984 -1.6875,1.875 0,1.03906 0.75781,1.875 1.6875,1.875 h 47.29297 c 0.93359,0 1.6914,-0.83594 1.6914,-1.875 0,-1.03516 -0.75781,-1.875 -1.6914,-1.875 z m 0,0"
       fill-opacity="1"
       fill-rule="nonzero"
       id="path1256" />
  </g>
  <g
     clip-path="url(#20ad972134)"
     id="g1262"
     transform="translate(-111.39063,-63.3125)">
    <path
       fill="#ffffff"
       d="m 165.42969,228.67578 h -47.29297 c -0.93359,0 -1.69141,0.83984 -1.69141,1.875 0,1.03516 0.75782,1.875 1.69141,1.875 h 47.29297 c 0.93359,0 1.6875,-0.83984 1.6875,-1.875 0,-1.03516 -0.75391,-1.875 -1.6875,-1.875 z m 0,0"
       fill-opacity="1"
       fill-rule="nonzero"
       id="path1260" />
  </g>
  <g
     clip-path="url(#58acae361a)"
     id="g1266"
     transform="translate(-111.39063,-63.3125)">
    <path
       fill="#ffffff"
       d="m 173.0625,233.5625 h -52.08203 c -1.02734,0 -1.85938,0.83984 -1.85938,1.875 0,1.03516 0.83204,1.875 1.85938,1.875 h 52.08203 c 1.02734,0 1.85937,-0.83984 1.85937,-1.875 0,-1.03516 -0.83203,-1.875 -1.85937,-1.875 z m 0,0"
       fill-opacity="1"
       fill-rule="nonzero"
       id="path1264" />
  </g>
  <g
     clip-path="url(#10330cd607)"
     id="g1270"
     transform="translate(-111.39063,-63.3125)">
    <path
       fill="#ffd706"
       d="m 236.62891,167.81641 v 1.80078 c 2.5625,3.63281 3.65234,7.58203 2.77343,11.37109 -0.49218,2.12891 -1.57031,4.03125 -3.10156,5.67188 -0.70312,0.7539 -1.48828,1.45703 -2.375,2.09765 -1.44531,1.05078 -3.12891,1.9375 -4.99219,2.65625 -0.79687,0.3086 -1.6289,0.58594 -2.49218,0.82813 -5.73829,1.62109 -12.8125,1.78906 -20.12891,0.11718 -5.95703,-1.35546 -11.23047,-3.73437 -15.38672,-6.69531 -0.70703,-0.5039 -1.38672,-1.02344 -2.02734,-1.55469 -1.49219,-1.24609 -2.78907,-2.57421 -3.87891,-3.95703 -0.73828,-0.93359 -1.375,-1.89062 -1.91016,-2.86718 -1.6914,-3.08985 -2.3125,-6.33985 -1.58593,-9.47657 0.30468,-1.33593 0.85156,-2.58203 1.58593,-3.73437 v -3.55469 c -3.24609,2.33203 -5.49218,5.34766 -6.3125,8.91016 -1.51562,6.55468 2.09375,13.51953 8.9336,19.03125 0.26172,1.05859 0.59375,2.09765 0.98828,3.11328 1.66406,4.2539 4.5,8.03515 8.24219,10.82812 4.39062,3.26953 9.64843,4.90625 14.90625,4.90625 5.26172,0 10.51953,-1.63672 14.91015,-4.90625 1.24219,-0.92578 2.36719,-1.97265 3.39844,-3.09765 0.76563,-0.83594 1.48438,-1.71485 2.125,-2.64453 6.62891,-2.37891 11.35938,-6.60547 12.64063,-12.16016 1.30859,-5.65625 -1.20704,-11.61328 -6.3125,-16.68359 z m -14.14454,31.54687 c -0.59765,0.44531 -1.22265,0.84375 -1.85546,1.21484 -7.23047,4.26954 -16.54688,3.8711 -23.375,-1.21484 -1.54688,-1.15234 -2.90625,-2.50781 -4.0586,-4.01172 -0.77344,-1.00781 -1.45703,-2.08203 -2.03906,-3.20312 4.0625,2.3125 8.79297,4.16797 13.97266,5.34765 6.59765,1.50391 13.01562,1.69922 18.65625,0.8086 -0.42188,0.36718 -0.85157,0.72265 -1.30079,1.05859 z m -35.95703,-20.38281 c -0.51172,-0.64453 -1.02734,-1.37891 -1.5039,-2.19141 v -18.80469 h 1.91015 c 0.2461,0 0.48828,-0.0117 0.73828,-0.0156 0.41797,-0.0117 0.83594,-0.0508 1.25,-0.082 0.86329,-0.0664 1.72266,-0.15625 2.57032,-0.30469 1.91406,-0.33984 3.76953,-0.88672 5.54687,-1.63672 0.46094,-0.19531 0.91406,-0.40625 1.36719,-0.6289 1.08594,-0.53907 2.13672,-1.15625 3.14453,-1.84766 1.27734,-0.875 2.48828,-1.86719 3.60938,-2.98047 l 4.71093,-4.67969 4.71094,4.67578 c 4.86719,4.83594 11.33984,7.5 18.22266,7.5 h 1.91015 v 24.67579 c 0,1.05078 -0.0703,2.09765 -0.20703,3.13281 -0.51172,0.5 -1.07812,0.98047 -1.70312,1.42969 -0.86328,0.625 -1.84375,1.1875 -2.90235,1.69531 0.64063,-2.00781 0.99219,-4.11719 0.99219,-6.25781 V 161.7188 c -1.04297,-0.0664 -2.07031,-0.1875 -3.08594,-0.35938 -0.26562,-0.043 -0.53515,-0.0898 -0.80468,-0.14453 -3.76954,-0.73828 -7.33204,-2.20312 -10.53125,-4.3164 -0.12891,-0.0312 -0.25391,-0.0703 -0.38282,-0.10157 0.12891,0.0312 0.25,0.0664 0.375,0.10157 -1.63281,-1.07813 -3.17578,-2.32032 -4.59375,-3.73047 l -2.0039,-1.99219 -2.00782,1.99219 c -0.0937,0.0937 -0.1875,0.17578 -0.27734,0.26172 -0.63281,0.60937 -1.28125,1.19531 -1.95703,1.74218 -0.043,0.0352 -0.0898,0.0664 -0.13281,0.10547 -0.77344,0.61719 -1.57422,1.19141 -2.39453,1.72657 -4.23829,2.76171 -9.11719,4.39062 -14.25,4.71484 V 181.5 c -0.85547,-0.8125 -1.63672,-1.65234 -2.32032,-2.51953 z m 20.47657,9.375 v -8.54297 h -8.60157 v -5.69141 h 8.60157 v -8.54687 h 5.73437 v 8.54297 h 8.59766 v 5.6914 h -8.59766 v 8.54297 h -5.73437 z m 0,0"
       fill-opacity="1"
       fill-rule="nonzero"
       id="path1268" />
  </g>
  <g
     fill="#ffffff"
     fill-opacity="1"
     id="g1310"
     transform="translate(-111.39063,-63.3125)">
    <g
       transform="translate(191.05519,270.89767)"
       id="g1308">
      <g
         id="g1306" />
    </g>
  </g>
  <g
     fill="#ffd706"
     fill-opacity="1"
     id="g1424"
     transform="translate(-111.39063,-63.3125)">
    <g
       transform="translate(190.97099,298.75015)"
       id="g1422">
      <g
         id="g1420" />
    </g>
  </g>
  <g
     fill="#ffd706"
     fill-opacity="1"
     id="g1438"
     transform="translate(-111.39063,-63.3125)">
    <g
       transform="translate(213.72708,298.75015)"
       id="g1436">
      <g
         id="g1434" />
    </g>
  </g>
  <g
     fill="#ffd706"
     fill-opacity="1"
     id="g1540"
     transform="translate(-111.39063,-63.3125)">
    <g
       transform="translate(178.26076,309.20908)"
       id="g1538">
      <g
         id="g1536" />
    </g>
  </g>
</svg>
