<svg 
      xmlns="http://www.w3.org/2000/svg"
      xmlns:xlink="http://www.w3.org/1999/xlink"
      viewBox="0 0 500 500" 
      version="1.2" 
      stroke-linecap="round" 
      stroke-linejoin="round" 
      width="500" 
      height="500"
    >
    <path
          d="M387.4328852719477,317.1492364515607L385.80004136213574,314.9135993923269L384.4572199907743,317.3105257251609L382.90107285146405,314.69211137786533L384.1676165933791,317.61264623794796L377.4841042869616,317.6328434009274L372.5248020484687,322.6923230345187L369.91543693519225,331.25131155480267L373.0281503548681,359.29579228558214L379.3608690644455,372.9313979644071L377.039849925397,379.72228075145995L378.9639737968264,390.63495237729376L375.85126037714963,396.28470044039796L374.8286375029056,407.88932634755747L214.3459759554894,408.2592879101021L76.4842385197685,407.8016339457122L7.0452019227032,408.03172419003704L7.150398087650046,398.3559263031825L-4.547473508864641e-13,382.07565989510204L4.037265526917508,376.47141497599114L0.7145789184032765,361.8303484794401L2.7430606726688893,353.41503151059396L0.7585848839048595,347.2049269371396L2.8658591139492273,346.19838677906137L2.2690494934918206,336.5709699097829L19.481387312463085,336.51263852329475L32.98797436080213,341.7330296361197L41.55369972909193,338.255100740907L47.52514741410687,327.75296742509863L42.487890981945384,317.35036423876227L46.99958627976139,314.7640039663147L49.883466811100334,309.1902452838708L56.90352246780276,305.65019100692916L67.51617014880276,304.8876874682537L74.982994464071,298.7652478277664L80.84295996697165,301.0976514101553L94.50755055859054,296.9728079992851L94.000429982691,292.9335007152117L100.57329729043977,289.0614773978382L100.57413557255086,280.1770088073872L106.45715163617433,275.36219361759504L103.70864267911656,265.8330172490719L107.54515557108516,258.6465706858621L120.70933129436162,251.4321592339329L131.02483158829955,248.7269961559423L139.14504517185924,242.02480164435656L146.24598846028493,231.21790036456423L159.22114694883476,227.03499381762822L167.7881291909589,218.51302544082364L169.29356465721185,211.42494525606253L176.74781583947924,206.9405821088617L177.12459343509863,203.07403101303544L182.6907641300486,197.33273700844074L197.88509817181102,189.9506700269376L213.0417128145723,189.66169556609339L206.9323781596113,173.72516404846738L200.34358459041823,169.24867926604884L200.4856618722547,91.7407120898979L220.35179046039275,94.18287863732166L225.6011157866692,97.25428648222578L229.41038670735998,108.23896401208049L219.3610201090387,121.1336244469253L222.40835246804681,125.63621157846683L227.5231439528211,125.86644905935191L233.57380325466966,135.87039480721387L238.85078969328015,138.64616338017686L248.3544780345901,138.7347568459536L258.568135292026,136.03148421249716L260.53752255212385,146.0690845205163L269.21095838236033,152.0354253075525L288.6454057419346,158.39615609726752L291.9898860373378,164.46906095681197L290.8796698238143,168.18352547163704L297.6029966851779,172.61070607594502L306.37492297280596,174.00408534789267L319.59777404919396,171.9394108370002L342.3440114485038,179.31810897283003L348.1427867519583,175.439514043896L358.41302310789615,180.78492449689475L363.7352729351742,178.40358297162993L368.2775633327137,179.40365224774177L370.3525658988128,177.21736896463744L408.4725154289995,181.26956312296852L433.4722957507456,191.82806536193402L438.7934980000514,198.07278570535573L446.4103627278773,200.33681321940549L453.9440348228409,208.41715315252122L467.14299705639496,213.83075635428804L467.1983192810626,313.4070723624518L477.85329636334154,314.0733257675638L491.12141082839753,321.6272235484421L500,336.22571543076765L481.97920335684466,346.04336108506413L445.2655698492699,346.36761346726144L403.79066259595766,324.87089002592575L392.5141482189433,321.5228310228099L385.3578827058486,322.4704772094933L383.69444369631356,320.69607706670286L386.044381370863,319.16421716238256L390.9424939592436,319.5469977071598Z"
          data-id="ARG.16"
          data-name="Río Negro"
          fill="transparent"
          stroke="black"
          fill-opacity="1"
        />
		
    <text
            x="273.449462890625"
            y="287.1555480957031"
            dominant-baseline="middle"
            text-anchor="middle"
            font-size="8px"
            font-family="sans-serif"
            fill="black"
            stroke="black"
            stroke-width="0.2px"
            stroke-linejoin="round"
          >
            <tspan x="273.449462890625" ></tspan>
         </text>
  </svg>