<?xml version="1.0" encoding="UTF-8" standalone="no"?>
<svg
   viewBox="0 0 500 500"
   version="1.2"
   stroke-linecap="round"
   stroke-linejoin="round"
   width="500"
   height="500"
   id="svg25"
   sodipodi:docname="rionegro.svg"
   inkscape:version="1.3.2 (091e20e, 2023-11-25, custom)"
   xmlns:inkscape="http://www.inkscape.org/namespaces/inkscape"
   xmlns:sodipodi="http://sodipodi.sourceforge.net/DTD/sodipodi-0.dtd"
   xmlns="http://www.w3.org/2000/svg"
   xmlns:svg="http://www.w3.org/2000/svg"><defs
   id="defs25" />
<sodipodi:namedview
   id="namedview25"
   pagecolor="#ffffff"
   bordercolor="#000000"
   borderopacity="0.25"
   inkscape:showpageshadow="2"
   inkscape:pageopacity="0.0"
   inkscape:pagecheckerboard="0"
   inkscape:deskcolor="#d1d1d1"
   inkscape:zoom="0.922"
   inkscape:cx="250"
   inkscape:cy="250"
   inkscape:window-width="1280"
   inkscape:window-height="657"
   inkscape:window-x="-8"
   inkscape:window-y="-8"
   inkscape:window-maximized="1"
   inkscape:current-layer="svg25" />
<path
   d="M401.0293322315256,323.7873111727563L400.9776850648136,294.02171923158767L429.8278763692815,293.91055253376317L434.5936921593743,298.7590107483584L442.5635218160983,290.8987092428192L468.1956327491762,291.994636686326L468.0765923283375,313.3731360265765L478.75159980248054,314.04064193282375L492.04465674369476,321.6087400808492L499.99999999999955,332.876838506651L498.50958033947654,338.92881687236786L482.88526266993404,346.07077678158294L446.65288569096265,346.4767881375001Z"
   data-id="ARG.16.1"
   data-name="Adolfo Alsina"
   fill="transparent"
   stroke="black"
   fill-opacity="1"
   id="path1"
   style="fill:#ffccaa;fill-opacity:1" />
<path
   d="M114.13142062460065,309.9046966697956L109.48779447282959,325.40265877761203L94.34929608690527,336.5341045859577L106.24997900521748,344.06325506466146L89.44155556227088,365.03025014778177L70.10284084610703,365.03892862164594L59.61804610790023,373.0564705660754L53.448939007635545,366.30251506909417L47.49691796582374,375.04985293443906L36.67284753084505,371.8398717165078L37.18637992831191,356.0033924250861L42.47328623783551,344.64917159517563L36.723654906225875,341.26316148277283L46.96994890709266,331.43244660271466L42.61857013768895,317.15864445991883L49.977241654990394,309.14838221619175L67.64309204448546,304.83773636656815L75.2839334482137,298.6626457703046L80.99493437870251,301.04057549290565L94.68521261836577,296.90797795477965L94.17713886453839,292.86107660189737L100.76236256814627,288.98177438066523L100.76320235947469,280.08060431856666L106.65727779960935,275.25673801874655L105.5941019775405,261.3076278280423L116.40725512524659,253.9349092759976Z"
   data-id="ARG.16.10"
   data-name="Pilcaniyeu"
   fill="transparent"
   stroke="black"
   fill-opacity="1"
   id="path2"
   style="fill:#000000;fill-opacity:0" />
<path
   d="M339.35001830745205,408.4115728059969L336.60977920206506,257.10091763962146L363.7035469426569,257.0579351643951L368.85734632658614,262.30950911187256L368.84474945665306,293.5572082730341L400.9776850648136,294.02171923158767L401.0293322315256,323.7873111727563L386.08230626853674,322.453579182004L386.7700953667013,319.141103442887L391.67741599567216,319.52460402552424L388.1612097026118,317.12233515339904L383.620877884262,314.6605909612126L384.889802581853,317.58661593990337L378.19372642285725,317.6068512817301L370.61083062080843,331.25092041816106L373.72939571975303,359.34812122603216L380.0740192077087,373.00935977292556L375.5332674936976,408.0330048687142Z"
   data-id="ARG.16.11"
   data-name="San Antonio"
   fill="transparent"
   stroke="black"
   fill-opacity="1"
   id="path3"
   style="fill:#ffccaa;fill-opacity:1" />
<path
   d="M275.72322829223185,408.37851752807774L278.5646622527247,256.33468137168757L336.60977920206506,257.10091763962146L339.35001830745205,408.4115728059969Z"
   data-id="ARG.16.12"
   data-name="Valcheta"
   fill="transparent"
   stroke="black"
   fill-opacity="1"
   id="path4"
   style="fill:#000000;fill-opacity:0" />
<path
   d="M137.99325143688657,408.70992836983805L118.32491862421693,371.7224060658946L89.44155556227088,365.03025014778177L106.24997900521748,344.06325506466146L94.34929608690527,336.5341045859577L109.48779447282959,325.40265877761203L114.13142062460065,309.9046966697956L136.67477905089845,296.7376797293732L170.37308569566676,293.1779641217431L181.56162556727668,271.3491210688726L202.01726275055262,267.7291343740285L213.90618859025972,273.5692620872114L209.72990631287666,408.4610148937818Z"
   data-id="ARG.16.13"
   data-name="Veinticinco de Mayo"
   fill="transparent"
   stroke="black"
   fill-opacity="1"
   id="path5"
   style="fill:#000000;fill-opacity:0" />
<path
   d="M365.7799310027426,251.64815622368724L363.7035469426569,257.0579351643951L336.60977920206506,257.10091763962146L278.5646622527247,256.33468137168757L221.23966636769865,248.7868353364115L239.50092880920784,228.73205917896212L292.95448666915036,209.70630994269868L293.27990580900223,198.21592869698316L289.0330810600167,198.51975578484462L288.8168347928886,157.9143497897876L291.426486346671,167.87658764649223L300.22288061862173,173.07195519269135L320.1985770575707,171.6395332691518L341.32268813845303,178.79170681144524L347.6904058879463,175.0433450635719L359.086794113397,180.50167603212412L366.19898687574005,178.81353598239684Z"
   data-id="ARG.16.2"
   data-name="Avellaneda"
   fill="transparent"
   stroke="black"
   fill-opacity="1"
   id="path6"
   style="fill:#000000;fill-opacity:0" />
<path
   d="M36.67284753084505,371.8398717165078L32.56752762073393,394.98139891887377L36.962995434893855,397.68134917912494L36.096750679391334,404.64561019756775L39.760340350629576,408.1751055367563L7.058446117305266,408.17567055790505L7.163839929050937,398.4816829339952L-4.547473508864641e-13,382.1708120472513L4.044854934442355,376.55603211849075L0.7159221076713038,361.8874418036162L2.273315126657508,336.5805789794449L36.723654906225875,341.26316148277283L42.47328623783551,344.64917159517563L37.18637992831191,356.0033924250861Z"
   data-id="ARG.16.3"
   data-name="Bariloche"
   fill="transparent"
   stroke="black"
   fill-opacity="1"
   id="path7"
   style="fill:#000000;fill-opacity:0" />
<path
   d="M400.9776850648136,294.02171923158767L368.84474945665306,293.5572082730341L368.85734632658614,262.30950911187256L363.7035469426569,257.0579351643951L365.7799310027426,251.64815622368724L467.90212567981007,252.46426283926166L468.1956327491762,291.994636686326L442.5635218160983,290.8987092428192L434.5936921593743,298.7590107483584L429.8278763692815,293.91055253376317Z"
   data-id="ARG.16.4"
   data-name="Conesa"
   fill="transparent"
   stroke="black"
   fill-opacity="1"
   id="path8"
   style="fill:#ffccaa;fill-opacity:1" />
<path
   d="M213.02188832118782,189.67600923379769L234.03304746836284,198.6601772138497L248.39263939696048,197.58641876974298L267.48403556684343,203.88048496807733L289.0330810600167,198.51975578484462L293.27990580900223,198.21592869698316L292.95448666915036,209.70630994269868L239.50092880920784,228.73205917896212L221.23966636769865,248.7868353364115L202.01726275055262,267.7291343740285L181.56162556727668,271.3491210688726L170.37308569566676,293.1779641217431L136.67477905089845,296.7376797293732L114.13142062460065,309.9046966697956L116.40725512524659,253.9349092759976L135.97019412616055,245.26755297953832L146.52091248366378,231.02945947580474L159.35964231607477,226.94698675797508L183.03419966206866,197.08059584717148L198.2570970765164,189.6846518067664Z"
   data-id="ARG.16.5"
   data-name="El Cuy"
   fill="transparent"
   stroke="black"
   fill-opacity="1"
   id="path9"
   style="fill:#ffccaa;fill-opacity:1" />
<path
   d="M213.02188832118782,189.67600923379769L207.32138478230672,173.428643660955L200.74119982667116,168.9819374462154L200.86254967365812,91.2900716301624L225.8060317172367,96.57375097958584L229.9121914186744,107.51239413560097L219.77339070787775,120.73823912931357L236.72289909403435,137.5947922983337L259.05421020985114,135.66410462369595L260.91098883749146,145.581887744881L288.8168347928886,157.9143497897876L289.0330810600167,198.51975578484462L267.48403556684343,203.88048496807733L248.39263939696048,197.58641876974298L234.03304746836284,198.6601772138497Z"
   data-id="ARG.16.6"
   data-name="General Roca"
   fill="transparent"
   stroke="black"
   fill-opacity="1"
   id="path10"
   style="fill:#ffccaa;fill-opacity:1" />
<path
   d="M89.44155556227088,365.03025014778177L118.32491862421693,371.7224060658946L137.99325143688657,408.70992836983805L39.760340350629576,408.1751055367563L36.096750679391334,404.64561019756775L36.962995434893855,397.68134917912494L32.56752762073393,394.98139891887377L36.67284753084505,371.8398717165078L47.49691796582374,375.04985293443906L53.448939007635545,366.30251506909417L59.61804610790023,373.0564705660754L70.10284084610703,365.03892862164594Z"
   data-id="ARG.16.7"
   data-name="Ñorquinco"
   fill="transparent"
   stroke="black"
   fill-opacity="1"
   id="path11"
   style="fill:#000000;fill-opacity:0" />
<path
   d="M209.72990631287666,408.4610148937818L213.90618859025972,273.5692620872114L202.01726275055262,267.7291343740285L221.23966636769865,248.7868353364115L278.5646622527247,256.33468137168757L275.72322829223185,408.37851752807774Z"
   data-id="ARG.16.8"
   data-name="Nueve de Julio"
   fill="transparent"
   stroke="black"
   fill-opacity="1"
   id="path12"
   style="fill:#000000;fill-opacity:0" />
<path
   d="M366.19898687574005,178.81353598239684L390.15613400382745,177.74509575391767L413.7362148253387,182.19415867806356L468.0211661006492,213.60962975351867L467.90212567981007,252.46426283926166L365.7799310027426,251.64815622368724Z"
   data-id="ARG.16.9"
   data-name="Pichi Mahuida"
   fill="transparent"
   stroke="black"
   fill-opacity="1"
   id="path13"
   style="fill:#ffccaa;fill-opacity:1" />
<text
   x="447.01434326171875"
   y="319.4859619140625"
   dominant-baseline="middle"
   text-anchor="middle"
   font-size="8px"
   font-family="sans-serif"
   fill="black"
   stroke="black"
   stroke-width="0.2px"
   stroke-linejoin="round"
   id="text13"
   style="fill:#000000;fill-opacity:0"><tspan
     x="447.01434326171875"
     id="tspan13"
     style="fill:#000000;fill-opacity:0" /></text>
,<text
   x="77.89937591552734"
   y="327.615966796875"
   dominant-baseline="middle"
   text-anchor="middle"
   font-size="8px"
   font-family="sans-serif"
   fill="black"
   stroke="black"
   stroke-width="0.2px"
   stroke-linejoin="round"
   id="text14"
   style="fill:#000000;fill-opacity:0"><tspan
     x="77.89937591552734"
     id="tspan14"
     style="fill:#000000;fill-opacity:0" /></text>
,<text
   x="359.697021484375"
   y="331.5380859375"
   dominant-baseline="middle"
   text-anchor="middle"
   font-size="8px"
   font-family="sans-serif"
   fill="black"
   stroke="black"
   stroke-width="0.2px"
   stroke-linejoin="round"
   id="text15"
   style="fill:#000000;fill-opacity:0"><tspan
     x="359.697021484375"
     id="tspan15"
     style="fill:#000000;fill-opacity:0" /></text>
,<text
   x="307.53662109375"
   y="365.7931823730469"
   dominant-baseline="middle"
   text-anchor="middle"
   font-size="8px"
   font-family="sans-serif"
   fill="black"
   stroke="black"
   stroke-width="0.2px"
   stroke-linejoin="round"
   id="text16"
   style="fill:#000000;fill-opacity:0"><tspan
     x="307.53662109375"
     id="tspan16"
     style="fill:#000000;fill-opacity:0" /></text>
,<text
   x="164.49481201171875"
   y="344.43658447265625"
   dominant-baseline="middle"
   text-anchor="middle"
   font-size="8px"
   font-family="sans-serif"
   fill="black"
   stroke="black"
   stroke-width="0.2px"
   stroke-linejoin="round"
   id="text17"
   style="fill:#000000;fill-opacity:0"><tspan
     x="164.49481201171875"
     id="tspan17"
     style="fill:#000000;fill-opacity:0" /></text>
,<text
   x="336.48150634765625"
   y="207.2610092163086"
   dominant-baseline="middle"
   text-anchor="middle"
   font-size="8px"
   font-family="sans-serif"
   fill="black"
   stroke="black"
   stroke-width="0.2px"
   stroke-linejoin="round"
   id="text18"
   style="fill:#000000;fill-opacity:0"><tspan
     x="336.48150634765625"
     id="tspan18"
     style="fill:#000000;fill-opacity:0" /></text>
,<text
   x="19.629764080047607"
   y="371.59686279296875"
   dominant-baseline="middle"
   text-anchor="middle"
   font-size="8px"
   font-family="sans-serif"
   fill="black"
   stroke="black"
   stroke-width="0.2px"
   stroke-linejoin="round"
   id="text19"
   style="fill:#000000;fill-opacity:0"><tspan
     x="19.629764080047607"
     id="tspan19"
     style="fill:#000000;fill-opacity:0" /></text>
,<text
   x="417.4068603515625"
   y="272.60479736328125"
   dominant-baseline="middle"
   text-anchor="middle"
   font-size="8px"
   font-family="sans-serif"
   fill="black"
   stroke="black"
   stroke-width="0.2px"
   stroke-linejoin="round"
   id="text20"
   style="fill:#000000;fill-opacity:0"><tspan
     x="417.4068603515625"
     id="tspan20"
     style="fill:#000000;fill-opacity:0" /></text>
,<text
   x="186.6304168701172"
   y="241.19000244140625"
   dominant-baseline="middle"
   text-anchor="middle"
   font-size="8px"
   font-family="sans-serif"
   fill="black"
   stroke="black"
   stroke-width="0.2px"
   stroke-linejoin="round"
   id="text21"
   style="fill:#000000;fill-opacity:0"><tspan
     x="186.6304168701172"
     id="tspan21"
     style="fill:#000000;fill-opacity:0" /></text>
,<text
   x="239.22239685058594"
   y="158.4487762451172"
   dominant-baseline="middle"
   text-anchor="middle"
   font-size="8px"
   font-family="sans-serif"
   fill="black"
   stroke="black"
   stroke-width="0.2px"
   stroke-linejoin="round"
   id="text22"
   style="fill:#000000;fill-opacity:0"><tspan
     x="239.22239685058594"
     id="tspan22"
     style="fill:#000000;fill-opacity:0" /></text>
,<text
   x="85.28038787841797"
   y="386.81976318359375"
   dominant-baseline="middle"
   text-anchor="middle"
   font-size="8px"
   font-family="sans-serif"
   fill="black"
   stroke="black"
   stroke-width="0.2px"
   stroke-linejoin="round"
   id="text23"
   style="fill:#000000;fill-opacity:0"><tspan
     x="85.28038787841797"
     id="tspan23"
     style="fill:#000000;fill-opacity:0" /></text>
,<text
   x="244.06707763671875"
   y="329.4997253417969"
   dominant-baseline="middle"
   text-anchor="middle"
   font-size="8px"
   font-family="sans-serif"
   fill="black"
   stroke="black"
   stroke-width="0.2px"
   stroke-linejoin="round"
   id="text24"
   style="fill:#000000;fill-opacity:0"><tspan
     x="244.06707763671875"
     id="tspan24"
     style="fill:#000000;fill-opacity:0" /></text>
,<text
   x="394.67388916015625"
   y="214.9644012451172"
   dominant-baseline="middle"
   text-anchor="middle"
   font-size="8px"
   font-family="sans-serif"
   fill="black"
   stroke="black"
   stroke-width="0.2px"
   stroke-linejoin="round"
   id="text25"
   style="fill:#000000;fill-opacity:0"><tspan
     x="394.67388916015625"
     id="tspan25"
     style="fill:#000000;fill-opacity:0" /></text>
</svg>
